<svg width="48" height="48" viewBox="0 0 48 48" fill="none" xmlns="http://www.w3.org/2000/svg">
<path d="M31.2335 7.12805H16.7663C16.639 7.12805 16.5169 7.17862 16.4269 7.26864C16.3369 7.35866 16.2863 7.48075 16.2863 7.60805V18.7201C16.2863 18.8474 16.3369 18.9694 16.4269 19.0595C16.5169 19.1495 16.639 19.2001 16.7663 19.2001H31.2335C31.3608 19.2001 31.4829 19.1495 31.5729 19.0595C31.6629 18.9694 31.7135 18.8474 31.7135 18.7201V7.60805C31.7135 7.48075 31.6629 7.35866 31.5729 7.26864C31.4829 7.17862 31.3608 7.12805 31.2335 7.12805ZM28.3199 14.5921C28.3199 14.783 28.2441 14.9661 28.109 15.1012C27.974 15.2362 27.7909 15.3121 27.5999 15.3121H26.1599V16.7521C26.1599 16.943 26.0841 17.1261 25.949 17.2612C25.814 17.3962 25.6309 17.4721 25.4399 17.4721H22.5599C22.369 17.4721 22.1858 17.3962 22.0508 17.2612C21.9158 17.1261 21.8399 16.943 21.8399 16.7521V15.3121H20.3999C20.209 15.3121 20.0258 15.2362 19.8908 15.1012C19.7558 14.9661 19.6799 14.783 19.6799 14.5921V11.7121C19.6799 11.5211 19.7558 11.338 19.8908 11.2029C20.0258 11.0679 20.209 10.9921 20.3999 10.9921H21.8399V9.55205C21.8399 9.3611 21.9158 9.17796 22.0508 9.04293C22.1858 8.90791 22.369 8.83205 22.5599 8.83205H25.4399C25.6309 8.83205 25.814 8.90791 25.949 9.04293C26.0841 9.17796 26.1599 9.3611 26.1599 9.55205V10.9921H27.5999C27.7909 10.9921 27.974 11.0679 28.109 11.2029C28.2441 11.338 28.3199 11.5211 28.3199 11.7121V14.5921ZM23.2799 15.7921V13.8721H21.3599C21.2963 13.8721 21.2352 13.8468 21.1902 13.8018C21.1452 13.7567 21.1199 13.6957 21.1199 13.6321V12.6721C21.1199 12.6084 21.1452 12.5474 21.1902 12.5023C21.2352 12.4573 21.2963 12.4321 21.3599 12.4321H23.2799V10.5121C23.2799 10.4484 23.3052 10.3874 23.3502 10.3423C23.3952 10.2973 23.4563 10.2721 23.5199 10.2721H24.4799C24.5436 10.2721 24.6046 10.2973 24.6496 10.3423C24.6946 10.3874 24.7199 10.4484 24.7199 10.5121V12.4321H26.6399C26.7036 12.4321 26.7646 12.4573 26.8096 12.5023C26.8546 12.5474 26.8799 12.6084 26.8799 12.6721V13.6321C26.8799 13.6957 26.8546 13.7567 26.8096 13.8018C26.7646 13.8468 26.7036 13.8721 26.6399 13.8721H24.7199V15.7921C24.7199 15.8557 24.6946 15.9167 24.6496 15.9618C24.6046 16.0068 24.5436 16.0321 24.4799 16.0321H23.5199C23.4563 16.0321 23.3952 16.0068 23.3502 15.9618C23.3052 15.9167 23.2799 15.8557 23.2799 15.7921ZM13.7663 25.0848V23.2704C13.7663 23.2068 13.7916 23.1458 13.8366 23.1007C13.8816 23.0557 13.9427 23.0304 14.0063 23.0304H16.5167C16.5804 23.0304 16.6414 23.0557 16.6864 23.1007C16.7314 23.1458 16.7567 23.2068 16.7567 23.2704V25.0848C16.7567 25.1485 16.7314 25.2095 16.6864 25.2546C16.6414 25.2996 16.5804 25.3248 16.5167 25.3248H14.0063C13.9427 25.3248 13.8816 25.2996 13.8366 25.2546C13.7916 25.2095 13.7663 25.1485 13.7663 25.0848ZM13.7663 32.1505V30.336C13.7663 30.2724 13.7916 30.2114 13.8366 30.1663C13.8816 30.1213 13.9427 30.096 14.0063 30.096H16.5167C16.5804 30.096 16.6414 30.1213 16.6864 30.1663C16.7314 30.2114 16.7567 30.2724 16.7567 30.336V32.16C16.7567 32.2237 16.7314 32.2847 16.6864 32.3298C16.6414 32.3748 16.5804 32.4001 16.5167 32.4001H14.0063C13.9427 32.4001 13.8816 32.3748 13.8366 32.3298C13.7916 32.2847 13.7663 32.2237 13.7663 32.16V32.1505ZM22.5023 25.0848V23.2704C22.5023 23.2068 22.5276 23.1458 22.5726 23.1007C22.6176 23.0557 22.6787 23.0304 22.7423 23.0304H25.2527C25.3164 23.0304 25.3774 23.0557 25.4224 23.1007C25.4674 23.1458 25.4927 23.2068 25.4927 23.2704V25.0848C25.4927 25.1485 25.4674 25.2095 25.4224 25.2546C25.3774 25.2996 25.3164 25.3248 25.2527 25.3248H22.7423C22.6787 25.3248 22.6176 25.2996 22.5726 25.2546C22.5276 25.2095 22.5023 25.1485 22.5023 25.0848ZM22.5023 32.1505V30.336C22.5023 30.2724 22.5276 30.2114 22.5726 30.1663C22.6176 30.1213 22.6787 30.096 22.7423 30.096H25.2527C25.3164 30.096 25.3774 30.1213 25.4224 30.1663C25.4674 30.2114 25.4927 30.2724 25.4927 30.336V32.16C25.4927 32.2237 25.4674 32.2847 25.4224 32.3298C25.3774 32.3748 25.3164 32.4001 25.2527 32.4001H22.7423C22.6787 32.4001 22.6176 32.3748 22.5726 32.3298C22.5276 32.2847 22.5023 32.2237 22.5023 32.16V32.1505ZM31.2383 25.0848V23.2704C31.2383 23.2068 31.2636 23.1458 31.3086 23.1007C31.3536 23.0557 31.4147 23.0304 31.4783 23.0304H33.9887C34.0524 23.0304 34.1134 23.0557 34.1584 23.1007C34.2034 23.1458 34.2287 23.2068 34.2287 23.2704V25.0848C34.2287 25.1485 34.2034 25.2095 34.1584 25.2546C34.1134 25.2996 34.0524 25.3248 33.9887 25.3248H31.4783C31.4147 25.3248 31.3536 25.2996 31.3086 25.2546C31.2636 25.2095 31.2383 25.1485 31.2383 25.0848ZM38.7935 12.9937H33.1535V19.6801C33.1535 19.9347 33.0524 20.1788 32.8723 20.3589C32.6923 20.5389 32.4481 20.6401 32.1935 20.6401H15.8063C15.5517 20.6401 15.3075 20.5389 15.1275 20.3589C14.9475 20.1788 14.8463 19.9347 14.8463 19.6801V12.9937H9.20632C9.07901 12.9937 8.95692 13.0442 8.86691 13.1342C8.77689 13.2243 8.72632 13.3463 8.72632 13.4737V40.3921C8.72632 40.5194 8.77689 40.6414 8.86691 40.7315C8.95692 40.8215 9.07901 40.8721 9.20632 40.8721H18.5759C18.7032 40.8721 18.8253 40.8215 18.9153 40.7315C19.0053 40.6414 19.0559 40.5194 19.0559 40.3921V36.6721C19.0559 36.5447 19.1065 36.4227 19.1965 36.3326C19.2865 36.2426 19.4086 36.1921 19.5359 36.1921H28.4639C28.5912 36.1921 28.7133 36.2426 28.8033 36.3326C28.8933 36.4227 28.9439 36.5447 28.9439 36.6721V40.3921C28.9439 40.5194 28.9945 40.6414 29.0845 40.7315C29.1745 40.8215 29.2966 40.8721 29.4239 40.8721H38.7935C38.9208 40.8721 39.0429 40.8215 39.1329 40.7315C39.2229 40.6414 39.2735 40.5194 39.2735 40.3921V13.4737C39.2735 13.3463 39.2229 13.2243 39.1329 13.1342C39.0429 13.0442 38.9208 12.9937 38.7935 12.9937ZM18.2015 33.1201C18.2015 33.311 18.1257 33.4941 17.9906 33.6292C17.8556 33.7642 17.6725 33.84 17.4815 33.84H13.0463C12.8554 33.84 12.6722 33.7642 12.5372 33.6292C12.4022 33.4941 12.3263 33.311 12.3263 33.1201V29.376C12.3263 29.1851 12.4022 29.002 12.5372 28.8669C12.6722 28.7319 12.8554 28.656 13.0463 28.656H17.4767C17.6677 28.656 17.8508 28.7319 17.9858 28.8669C18.1209 29.002 18.1967 29.1851 18.1967 29.376L18.2015 33.1201ZM18.2015 26.0545C18.2015 26.2454 18.1257 26.4285 17.9906 26.5636C17.8556 26.6986 17.6725 26.7745 17.4815 26.7745H13.0463C12.8554 26.7745 12.6722 26.6986 12.5372 26.5636C12.4022 26.4285 12.3263 26.2454 12.3263 26.0545V22.3104C12.3263 22.1195 12.4022 21.9364 12.5372 21.8013C12.6722 21.6663 12.8554 21.5905 13.0463 21.5905H17.4767C17.6677 21.5905 17.8508 21.6663 17.9858 21.8013C18.1209 21.9364 18.1967 22.1195 18.1967 22.3104L18.2015 26.0545ZM26.9375 33.1201C26.9375 33.311 26.8617 33.4941 26.7266 33.6292C26.5916 33.7642 26.4085 33.84 26.2175 33.84H21.7823C21.5914 33.84 21.4082 33.7642 21.2732 33.6292C21.1382 33.4941 21.0623 33.311 21.0623 33.1201V29.376C21.0623 29.1851 21.1382 29.002 21.2732 28.8669C21.4082 28.7319 21.5914 28.656 21.7823 28.656H26.2127C26.4037 28.656 26.5868 28.7319 26.7218 28.8669C26.8569 29.002 26.9327 29.1851 26.9327 29.376L26.9375 33.1201ZM26.9375 26.0545C26.9375 26.2454 26.8617 26.4285 26.7266 26.5636C26.5916 26.6986 26.4085 26.7745 26.2175 26.7745H21.7823C21.5914 26.7745 21.4082 26.6986 21.2732 26.5636C21.1382 26.4285 21.0623 26.2454 21.0623 26.0545V22.3104C21.0623 22.1195 21.1382 21.9364 21.2732 21.8013C21.4082 21.6663 21.5914 21.5905 21.7823 21.5905H26.2127C26.4037 21.5905 26.5868 21.6663 26.7218 21.8013C26.8569 21.9364 26.9327 22.1195 26.9327 22.3104L26.9375 26.0545ZM35.6735 33.1201C35.6735 33.311 35.5977 33.4941 35.4626 33.6292C35.3276 33.7642 35.1445 33.84 34.9535 33.84H30.5183C30.3274 33.84 30.1442 33.7642 30.0092 33.6292C29.8742 33.4941 29.7983 33.311 29.7983 33.1201V29.376C29.7983 29.1851 29.8742 29.002 30.0092 28.8669C30.1442 28.7319 30.3274 28.656 30.5183 28.656H34.9487C35.1397 28.656 35.3228 28.7319 35.4578 28.8669C35.5929 29.002 35.6687 29.1851 35.6687 29.376L35.6735 33.1201ZM35.6735 26.0545C35.6735 26.2454 35.5977 26.4285 35.4626 26.5636C35.3276 26.6986 35.1445 26.7745 34.9535 26.7745H30.5183C30.3274 26.7745 30.1442 26.6986 30.0092 26.5636C29.8742 26.4285 29.7983 26.2454 29.7983 26.0545V22.3104C29.7983 22.1195 29.8742 21.9364 30.0092 21.8013C30.1442 21.6663 30.3274 21.5905 30.5183 21.5905H34.9487C35.1397 21.5905 35.3228 21.6663 35.4578 21.8013C35.5929 21.9364 35.6687 22.1195 35.6687 22.3104L35.6735 26.0545ZM31.2383 32.16V30.336C31.2383 30.2724 31.2636 30.2114 31.3086 30.1663C31.3536 30.1213 31.4147 30.096 31.4783 30.096H33.9887C34.0524 30.096 34.1134 30.1213 34.1584 30.1663C34.2034 30.2114 34.2287 30.2724 34.2287 30.336V32.16C34.2287 32.2237 34.2034 32.2847 34.1584 32.3298C34.1134 32.3748 34.0524 32.4001 33.9887 32.4001H31.4783C31.4147 32.4001 31.3536 32.3748 31.3086 32.3298C31.2636 32.2847 31.2383 32.2237 31.2383 32.16Z" fill="white"/>
</svg>
