<svg width="48" height="48" viewBox="0 0 48 48" fill="none" xmlns="http://www.w3.org/2000/svg">
<path d="M10.1137 43.3392C9.93821 43.3387 9.76621 43.29 9.61642 43.1986C9.46663 43.1071 9.34479 42.9763 9.26413 42.8204C9.18347 42.6646 9.14708 42.4896 9.15893 42.3145C9.17077 42.1393 9.2304 41.9708 9.33132 41.8272L11.4481 38.8272V38.7888C11.6789 38.4123 12.004 38.1027 12.3913 37.8905C12.7786 37.6783 13.2146 37.571 13.6561 37.5792H34.2961C34.7359 37.5709 35.1703 37.6771 35.5566 37.8875C35.9429 38.0979 36.2678 38.4052 36.4993 38.7792V38.8224L38.6209 41.832C38.7218 41.9756 38.7815 42.1441 38.7933 42.3193C38.8051 42.4944 38.7688 42.6694 38.6881 42.8252C38.6074 42.9811 38.4856 43.1119 38.3358 43.2034C38.186 43.2948 38.014 43.3435 37.8385 43.344L10.1137 43.3392ZM33.0481 34.2192L32.6065 36.1392H26.4577L27.1969 32.8752C27.3732 32.0993 27.8506 31.4252 28.5239 31.0012C29.1972 30.5773 30.0114 30.4381 30.7873 30.6144C31.5632 30.7908 32.2373 31.2681 32.6613 31.9414C33.0853 32.6147 33.2244 33.4289 33.0481 34.2048V34.2192ZM30.9889 33.7968C30.9889 33.6146 30.9349 33.4364 30.8336 33.2848C30.7323 33.1333 30.5884 33.0152 30.42 32.9454C30.2516 32.8756 30.0663 32.8574 29.8875 32.893C29.7087 32.9285 29.5445 33.0163 29.4156 33.1452C29.2868 33.2741 29.199 33.4383 29.1634 33.617C29.1279 33.7958 29.1461 33.9811 29.2159 34.1495C29.2856 34.3179 29.4037 34.4619 29.5553 34.5631C29.7069 34.6644 29.885 34.7184 30.0673 34.7184C30.1904 34.7191 30.3123 34.6951 30.426 34.6479C30.5396 34.6007 30.6426 34.5312 30.729 34.4435C30.8153 34.3558 30.8832 34.2517 30.9287 34.1373C30.9742 34.023 30.9963 33.9007 30.9937 33.7776L30.9889 33.7968ZM18.9889 28.704C19.0526 28.704 19.1136 28.6788 19.1586 28.6338C19.2036 28.5887 19.2289 28.5277 19.2289 28.464V26.688C19.2289 26.5305 19.1979 26.3744 19.1376 26.2288C19.0773 26.0832 18.9889 25.9509 18.8774 25.8395C18.766 25.7281 18.6337 25.6397 18.4881 25.5794C18.3425 25.5191 18.1865 25.488 18.0289 25.488H11.4577C11.1395 25.488 10.8342 25.6145 10.6092 25.8395C10.3841 26.0646 10.2577 26.3698 10.2577 26.688V28.4448C10.2577 28.5085 10.283 28.5695 10.328 28.6145C10.373 28.6596 10.4341 28.6848 10.4977 28.6848L18.9889 28.704ZM20.5345 23.2128C20.6951 23.1838 20.8481 23.1225 20.9842 23.0325C21.1204 22.9426 21.2368 22.8259 21.3265 22.6896L27.7057 12.9072C27.8734 12.6506 27.9365 12.3395 27.882 12.0378C27.8276 11.7361 27.6597 11.4667 27.4129 11.2848L24.7489 9.32645C24.5075 9.14661 24.2068 9.06495 23.9076 9.0979C23.6083 9.13086 23.3327 9.27598 23.1361 9.50405L15.4561 18.288C15.3467 18.4131 15.2645 18.5594 15.2146 18.7179C15.1647 18.8764 15.1483 19.0435 15.1663 19.2086C15.1844 19.3738 15.2365 19.5334 15.3194 19.6773C15.4024 19.8212 15.5143 19.9464 15.6481 20.0448L19.6417 22.9776C19.8483 23.1275 20.0969 23.2081 20.3521 23.208C20.418 23.209 20.4839 23.2042 20.5489 23.1936L20.5345 23.2128ZM28.2577 14.6928L26.2225 17.8176C27.1151 18.2579 27.9067 18.8785 28.5473 19.6401C29.188 20.4018 29.6638 21.2879 29.9447 22.2427C30.2256 23.1975 30.3055 24.2002 30.1793 25.1874C30.0532 26.1746 29.7237 27.125 29.2118 27.9785C28.6998 28.8319 28.0165 29.57 27.2049 30.1461C26.3933 30.7222 25.4711 31.1237 24.4965 31.3254C23.5219 31.5271 22.516 31.5245 21.5425 31.3179C20.5689 31.1113 19.6488 30.705 18.8401 30.1248H13.5937C14.8471 31.9917 16.6476 33.4249 18.7481 34.2276C20.8485 35.0303 23.1459 35.1632 25.3249 34.608L25.8049 32.5536C25.9539 31.9052 26.2465 31.2985 26.6612 30.7783C27.0759 30.2581 27.6021 29.8376 28.201 29.5478C28.7998 29.258 29.4561 29.1064 30.1214 29.1041C30.7867 29.1018 31.444 29.2488 32.0449 29.5344C33.4934 27.0599 33.9082 24.1142 33.1992 21.3359C32.4903 18.5576 30.7148 16.1708 28.2577 14.6928ZM30.9793 7.07525C30.9541 6.92315 30.8987 6.77765 30.8162 6.64738C30.7338 6.5171 30.626 6.40471 30.4993 6.31685L28.5505 4.87685C28.3535 4.73035 28.1145 4.65124 27.8689 4.65125H27.6865C27.4812 4.68512 27.2888 4.77375 27.1297 4.9078C26.9705 5.04184 26.8504 5.21634 26.7821 5.4129C26.7138 5.60946 26.6998 5.8208 26.7416 6.02466C26.7833 6.22852 26.8793 6.41735 27.0193 6.57125L25.7425 8.25125L28.0849 9.96965L29.3713 8.27525C29.5094 8.3343 29.6579 8.36531 29.8081 8.36645H29.9857C30.2872 8.31686 30.5569 8.15053 30.7366 7.90347C30.9163 7.6564 30.9914 7.3485 30.9457 7.04645L30.9793 7.07525Z" fill="white"/>
</svg>
