<svg width="56" height="56" viewBox="0 0 56 56" fill="none" xmlns="http://www.w3.org/2000/svg">
<rect x="27.5771" width="39" height="39" rx="10" transform="rotate(45 27.5771 0)" fill="#E08761"/>
<path fill-rule="evenodd" clip-rule="evenodd" d="M40.3059 34.6754C39.6712 33.3974 38.8349 32.2298 37.8291 31.2174C37.4922 30.8377 37.14 30.4718 36.7732 30.1208L36.7289 30.0776C36.5926 29.9456 36.4581 29.8118 36.3252 29.6763C37.7005 27.7639 38.8771 25.7163 39.8369 23.5653L39.8754 23.4789L39.9022 23.3879C40.0294 22.9644 40.1741 22.1594 39.6607 21.4314C39.1287 20.6801 38.2782 20.5448 37.7077 20.5448H35.0862C34.5373 20.5194 33.9944 20.6685 33.5354 20.9707C33.0764 21.273 32.7249 21.7128 32.5312 22.2271C31.9671 23.5707 31.2608 24.8501 30.4242 26.0433V22.9714C30.4242 22.5748 30.3869 21.9098 29.9611 21.3498C29.4524 20.6778 28.7162 20.5448 28.2052 20.5448H24.0449C23.502 20.5323 22.9751 20.7291 22.5734 21.0944C22.1716 21.4597 21.9257 21.9655 21.8866 22.5071L21.8831 22.5596V22.6121C21.8831 23.1779 22.1071 23.5956 22.2867 23.8581C22.3672 23.9759 22.4524 24.0833 22.5072 24.1509L22.5189 24.1661C22.5772 24.2384 22.6157 24.2863 22.6542 24.3399C22.7569 24.4776 22.9027 24.6923 22.9447 25.2453V26.9638C22.1097 25.5652 21.425 24.0823 20.9019 22.5398L20.8926 22.5141L20.8832 22.4896C20.7409 22.1174 20.5134 21.5761 20.0572 21.1631C19.5252 20.6789 18.8952 20.5448 18.3224 20.5448H15.6624C15.0826 20.5448 14.3837 20.6801 13.8622 21.2296C13.3501 21.7709 13.2917 22.4196 13.2917 22.7626V22.9189L13.3244 23.0706C14.0597 26.4902 15.5776 29.6929 17.7589 32.4273C18.7556 33.9992 20.1088 35.314 21.7088 36.2651C23.3087 37.2162 25.1103 37.7767 26.9674 37.9013L27.0152 37.9048H27.0642C27.9112 37.9048 28.7944 37.8313 29.4582 37.3891C30.3531 36.7918 30.4242 35.8759 30.4242 35.4186V34.0909C30.6541 34.2776 30.9387 34.5273 31.2876 34.8633C31.7099 35.2856 32.0459 35.6519 32.3341 35.9716L32.4881 36.1419C32.7121 36.3916 32.9326 36.6378 33.1332 36.8396C33.3852 37.0928 33.6967 37.3716 34.0864 37.5781C34.5099 37.8009 34.9544 37.9024 35.4257 37.9024H38.0869C38.6481 37.9024 39.4519 37.7694 40.0177 37.1138C40.6337 36.3998 40.5871 35.5236 40.3934 34.8948L40.3584 34.7816L40.3059 34.6754ZM33.6326 34.7991C33.2711 34.3949 32.8988 34.0004 32.5161 33.6161L32.5126 33.6126C30.9294 32.0866 30.1909 31.8218 29.6682 31.8218C29.3894 31.8218 29.0826 31.8521 28.8831 32.1018C28.7943 32.2215 28.7355 32.3607 28.7116 32.5078C28.6838 32.679 28.6713 32.8523 28.6742 33.0258V35.4186C28.6742 35.7161 28.6252 35.8409 28.4876 35.9319C28.3044 36.0544 27.9136 36.1536 27.0747 36.1536C25.4813 36.0452 23.9364 35.5601 22.567 34.7383C21.1975 33.9165 20.0427 32.7814 19.1974 31.4263L19.1881 31.4111L19.1764 31.3971C17.1443 28.8698 15.7287 25.904 15.0417 22.7346C15.0464 22.5829 15.0791 22.4908 15.1327 22.4348C15.1876 22.3764 15.3217 22.2948 15.6624 22.2948H18.3224C18.6176 22.2948 18.7716 22.3601 18.8824 22.4593C19.0061 22.5736 19.1157 22.7661 19.2464 23.1091C19.8997 25.0294 20.7817 26.8261 21.6182 28.1468C22.0359 28.8059 22.4466 29.3554 22.8176 29.7439C23.0031 29.9376 23.1839 30.0986 23.3577 30.2129C23.5246 30.3226 23.7147 30.4101 23.9107 30.4101C24.0134 30.4101 24.1336 30.3984 24.2491 30.3483C24.374 30.2934 24.4767 30.198 24.5407 30.0776C24.6609 29.8583 24.6947 29.5351 24.6947 29.1116V25.1764C24.6329 24.2221 24.3447 23.6843 24.0647 23.3028C24.0079 23.2265 23.9496 23.1515 23.8897 23.0776L23.8746 23.0589C23.8251 22.9983 23.7776 22.9361 23.7322 22.8723C23.6754 22.8006 23.641 22.7137 23.6331 22.6226C23.6422 22.5299 23.6865 22.4442 23.7567 22.383C23.827 22.3219 23.918 22.2899 24.0111 22.2936H28.2052C28.4456 22.2936 28.5261 22.3519 28.5669 22.4068C28.6252 22.4826 28.6742 22.6401 28.6742 22.9714V28.2541C28.6742 28.8818 28.9636 29.3064 29.3836 29.3064C29.8666 29.3064 30.2154 29.0136 30.8244 28.4046L30.8349 28.3929L30.8442 28.3824C32.2105 26.7169 33.3267 24.861 34.1576 22.8734L34.1622 22.8594C34.2244 22.6836 34.3425 22.533 34.4984 22.4308C34.6544 22.3286 34.8396 22.2804 35.0256 22.2936H37.7089C38.0729 22.2936 38.1919 22.3869 38.2316 22.4418C38.2724 22.5001 38.3016 22.6249 38.2316 22.8699C37.2734 25.0124 36.0887 27.0462 34.6977 28.9366L34.6884 28.9506C34.5542 29.1571 34.4061 29.3858 34.3851 29.6471C34.3617 29.9294 34.4831 30.1849 34.6966 30.4603C34.8517 30.6889 35.1726 31.0028 35.4981 31.3213L35.5284 31.3516C35.8691 31.6853 36.2389 32.0469 36.5352 32.3969L36.5434 32.4051L36.5516 32.4144C37.4351 33.2959 38.1699 34.3148 38.7274 35.4314C38.8161 35.7348 38.7624 35.8911 38.6924 35.9716C38.6119 36.0649 38.4311 36.1524 38.0881 36.1524H35.4257C35.2442 36.1574 35.0646 36.1152 34.9042 36.0299C34.7079 35.915 34.5295 35.7719 34.3746 35.6053C34.2077 35.4384 34.0269 35.2366 33.8052 34.9904L33.6326 34.7991Z" fill="white"/>
</svg>
