<svg width="490" height="323" viewBox="0 0 490 323" fill="none" xmlns="http://www.w3.org/2000/svg">
<rect x="454.566" width="40.4285" height="40.4285" rx="8" transform="rotate(30 454.566 0)" fill="#E08761"/>
<rect x="371.214" y="196" width="40.4285" height="40.4285" rx="8" transform="rotate(30 371.214 196)" fill="#6194E0"/>
<rect x="12.9998" y="268.372" width="76.8932" height="76.8932" rx="9" transform="rotate(-45 12.9998 268.372)" fill="#6194E0"/>
<rect x="184.118" y="130.786" width="40.4285" height="40.4285" rx="8" transform="rotate(-29.1096 184.118 130.786)" fill="#E08761"/>
<rect x="7.13647" y="75.9846" width="19.8695" height="19.8695" rx="8" transform="rotate(20.4907 7.13647 75.9846)" fill="#6194E0"/>
<path d="M92.2273 271.112C92.2273 263.84 86.7728 257.724 79.6654 256.567C78.3431 248.633 71.0705 243.013 62.9714 244.17C55.864 245.327 50.4095 251.443 50.4095 258.716L50.4095 278.55C50.4095 282.517 53.55 285.658 57.3516 285.492L77.1861 285.492C85.6158 285.658 92.062 279.211 92.2273 271.112ZM68.7565 274.087L67.1036 272.435L65.4507 274.087C64.459 275.079 63.1367 275.079 62.1449 274.087C61.1532 273.096 61.1532 271.773 62.1449 270.782L63.7978 269.129L62.1449 267.476C61.1532 266.484 61.1532 265.162 62.1449 264.17C63.1367 263.178 64.459 263.178 65.4507 264.17L67.1036 265.823L68.7565 264.17C69.7482 263.178 71.0705 263.178 72.0622 264.17C73.0539 265.162 73.0539 266.484 72.0622 267.476L70.4093 269.129L72.0622 270.782C73.0539 271.773 73.0539 273.096 72.0622 274.087C71.0705 275.079 69.7482 275.079 68.7565 274.087Z" fill="white"/>
</svg>
