<svg width="1920" height="7711" viewBox="0 0 1920 7711" fill="none" xmlns="http://www.w3.org/2000/svg">
<g clip-path="url(#clip0_2009_6)">
<rect x="465.162" y="989" width="66.3238" height="66.3238" rx="8" transform="rotate(30 465.162 989)" fill="#6194E0"/>
<g opacity="0.25" filter="url(#filter0_f_2009_6)">
<ellipse cx="1797.04" cy="852.027" rx="202.041" ry="107.027" fill="#6194E0"/>
</g>
<g opacity="0.25" filter="url(#filter1_f_2009_6)">
<ellipse cx="507.041" cy="1066.03" rx="202.041" ry="107.027" fill="#6194E0"/>
</g>
<g opacity="0.25" filter="url(#filter2_f_2009_6)">
<ellipse cx="1636.5" cy="2090.5" rx="325.5" ry="172.5" fill="#6194E0"/>
</g>
<g opacity="0.05" filter="url(#filter3_f_2009_6)">
<ellipse cx="137" cy="96.7027" rx="360" ry="190.703" fill="#6194E0"/>
</g>
<g opacity="0.25" filter="url(#filter4_f_2009_6)">
<ellipse cx="639.127" cy="2357.15" rx="177.157" ry="93.8453" fill="#6194E0"/>
</g>
<g opacity="0.05" filter="url(#filter5_f_2009_6)">
<ellipse cx="314.661" cy="1507.22" rx="315.661" ry="167.215" fill="#6194E0"/>
</g>
<g opacity="0.25" filter="url(#filter6_f_2009_6)">
<ellipse cx="1757.25" cy="5010.51" rx="177.157" ry="93.8453" fill="#6194E0"/>
</g>
<g opacity="0.25" filter="url(#filter7_f_2009_6)">
<ellipse cx="626.127" cy="5198.15" rx="177.157" ry="93.8453" fill="#6194E0"/>
</g>
<g opacity="0.05" filter="url(#filter8_f_2009_6)">
<ellipse cx="301.661" cy="4348.22" rx="315.661" ry="167.215" fill="#6194E0"/>
</g>
<circle opacity="0.05" cx="-34.5" cy="465.5" r="186.5" stroke="#6194E0" stroke-width="80"/>
<circle opacity="0.05" cx="1880" cy="276" r="128" stroke="#6194E0" stroke-width="64"/>
<circle opacity="0.05" cx="1088" cy="1051" r="128" stroke="#6194E0" stroke-width="64"/>
<circle opacity="0.05" cx="-40.5" cy="1606.5" r="186.5" stroke="#6194E0" stroke-width="80"/>
<circle opacity="0.05" cx="1874" cy="1417" r="128" stroke="#6194E0" stroke-width="64"/>
<circle opacity="0.05" cx="1082" cy="2192" r="128" stroke="#6194E0" stroke-width="64"/>
<circle opacity="0.05" cx="226.5" cy="226.5" r="186.5" transform="matrix(-1 0 0 1 2059 2475)" stroke="#6194E0" stroke-width="80"/>
<circle opacity="0.05" cx="160" cy="160" r="128" transform="matrix(-1 0 0 1 78 2352)" stroke="#6194E0" stroke-width="64"/>
<circle opacity="0.05" cx="160" cy="160" r="128" transform="matrix(-1 0 0 1 870 3127)" stroke="#6194E0" stroke-width="64"/>
<circle opacity="0.05" cx="312.533" cy="312.533" r="272.533" transform="matrix(-1 0 0 1 2059 3616.72)" stroke="#6194E0" stroke-width="80"/>
<circle opacity="0.05" cx="220.774" cy="220.774" r="188.774" transform="matrix(-1 0 0 1 418.376 4516.37)" stroke="#6194E0" stroke-width="64"/>
<circle opacity="0.05" cx="312.533" cy="312.533" r="272.533" transform="matrix(-1 0 0 1 2156 5029.72)" stroke="#6194E0" stroke-width="80"/>
<circle opacity="0.05" cx="220.774" cy="220.774" r="188.774" transform="matrix(-1 0 0 1 515.376 5929.37)" stroke="#6194E0" stroke-width="64"/>
<circle opacity="0.05" cx="312.533" cy="312.533" r="272.533" transform="matrix(-1 0 0 1 1990 6701.72)" stroke="#6194E0" stroke-width="80"/>
<circle opacity="0.05" cx="220.774" cy="220.774" r="188.774" transform="matrix(-1 0 0 1 349.376 7601.37)" stroke="#6194E0" stroke-width="64"/>
<rect x="1889" y="399" width="24" height="24" rx="8" transform="rotate(30 1889 399)" fill="#6194E0"/>
<rect x="1190" y="175" width="24" height="24" rx="8" transform="rotate(30 1190 175)" fill="#E08761"/>
<rect x="1620.36" y="1649.43" width="19.1317" height="19.1317" rx="8" transform="rotate(30 1620.36 1649.43)" fill="#6194E0"/>
<rect x="1731.57" y="1247" width="19.1317" height="19.1317" rx="8" transform="rotate(30 1731.57 1247)" fill="#6194E0"/>
<rect x="1748.57" y="3594" width="40.4285" height="40.4285" rx="8" transform="rotate(30 1748.57 3594)" fill="#E08761"/>
<rect x="1665.21" y="3790" width="40.4285" height="40.4285" rx="8" transform="rotate(30 1665.21 3790)" fill="#6194E0"/>
<rect x="1307" y="3862.37" width="76.8932" height="76.8932" rx="9" transform="rotate(-45 1307 3862.37)" fill="#6194E0"/>
<rect x="1478.12" y="3724.79" width="40.4285" height="40.4285" rx="8" transform="rotate(-29.1096 1478.12 3724.79)" fill="#E08761"/>
<rect x="1301.14" y="3669.98" width="19.8695" height="19.8695" rx="8" transform="rotate(20.4907 1301.14 3669.98)" fill="#6194E0"/>
<rect x="1443" y="24" width="56" height="56" rx="16" transform="rotate(30 1443 24)" fill="#6194E0"/>
<g clip-path="url(#clip1_2009_6)">
<path d="M1467.58 59.8616C1466.51 55.8545 1462.6 53.2903 1458.51 53.7021C1456.61 49.526 1451.78 47.5033 1447.49 49.3365C1443.74 51.0233 1441.64 55.198 1442.71 59.2051L1445.64 70.1333C1446.23 72.3189 1448.42 73.5856 1450.49 72.9333L1461.42 70.0051C1466.09 68.8516 1468.69 64.3483 1467.58 59.8616ZM1455.09 64.9658L1453.94 64.2992L1453.27 65.4539C1452.87 66.1467 1452.14 66.3419 1451.45 65.9419C1450.76 65.5419 1450.56 64.8133 1450.96 64.1205L1451.63 62.9658L1450.47 62.2992C1449.78 61.8992 1449.58 61.1706 1449.98 60.4778C1450.38 59.785 1451.11 59.5898 1451.81 59.9898L1452.96 60.6564L1453.63 59.5017C1454.03 58.8089 1454.76 58.6137 1455.45 59.0137C1456.14 59.4137 1456.34 60.1422 1455.94 60.8351L1455.27 61.9898L1456.42 62.6564C1457.12 63.0564 1457.31 63.785 1456.91 64.4778C1456.51 65.1706 1455.78 65.3658 1455.09 64.9658Z" fill="white"/>
</g>
<path d="M1386.23 3865.11C1386.23 3857.84 1380.77 3851.72 1373.67 3850.57C1372.34 3842.63 1365.07 3837.01 1356.97 3838.17C1349.86 3839.33 1344.41 3845.44 1344.41 3852.72L1344.41 3872.55C1344.41 3876.52 1347.55 3879.66 1351.35 3879.49L1371.19 3879.49C1379.62 3879.66 1386.06 3873.21 1386.23 3865.11ZM1362.76 3868.09L1361.1 3866.43L1359.45 3868.09C1358.46 3869.08 1357.14 3869.08 1356.15 3868.09C1355.15 3867.1 1355.15 3865.77 1356.15 3864.78L1357.8 3863.13L1356.15 3861.48C1355.15 3860.48 1355.15 3859.16 1356.15 3858.17C1357.14 3857.18 1358.46 3857.18 1359.45 3858.17L1361.1 3859.82L1362.76 3858.17C1363.75 3857.18 1365.07 3857.18 1366.06 3858.17C1367.05 3859.16 1367.05 3860.48 1366.06 3861.48L1364.41 3863.13L1366.06 3864.78C1367.05 3865.77 1367.05 3867.1 1366.06 3868.09C1365.07 3869.08 1363.75 3869.08 1362.76 3868.09Z" fill="white"/>
<path d="M959.983 3859.98L963.765 3864.28C965.165 3865.87 965.866 3866.67 966.6 3866.47C967.333 3866.28 967.585 3865.23 968.087 3863.13L970.876 3851.5C971.652 3848.27 972.039 3846.66 971.178 3845.86C970.317 3845.07 968.825 3845.66 965.84 3846.84L951.997 3852.34C949.61 3853.29 948.416 3853.76 948.34 3854.58C948.332 3854.66 948.332 3854.75 948.34 3854.83C948.414 3855.64 949.605 3856.12 951.99 3857.08C953.069 3857.51 953.609 3857.73 953.996 3858.14C954.04 3858.19 954.082 3858.24 954.122 3858.29C954.479 3858.73 954.631 3859.31 954.936 3860.47L955.506 3862.65C955.801 3863.78 955.949 3864.35 956.338 3864.43C956.726 3864.5 957.064 3864.04 957.739 3863.1L959.983 3859.98ZM959.983 3859.98L959.613 3859.59C959.19 3859.15 958.979 3858.93 958.979 3858.66C958.979 3858.38 959.189 3858.16 959.613 3857.72L963.781 3853.38" stroke="white" stroke-width="1.75" stroke-linecap="round" stroke-linejoin="round"/>
</g>
<defs>
<filter id="filter0_f_2009_6" x="1395" y="545" width="804.082" height="614.054" filterUnits="userSpaceOnUse" color-interpolation-filters="sRGB">
<feFlood flood-opacity="0" result="BackgroundImageFix"/>
<feBlend mode="normal" in="SourceGraphic" in2="BackgroundImageFix" result="shape"/>
<feGaussianBlur stdDeviation="100" result="effect1_foregroundBlur_2009_6"/>
</filter>
<filter id="filter1_f_2009_6" x="105" y="759" width="804.082" height="614.054" filterUnits="userSpaceOnUse" color-interpolation-filters="sRGB">
<feFlood flood-opacity="0" result="BackgroundImageFix"/>
<feBlend mode="normal" in="SourceGraphic" in2="BackgroundImageFix" result="shape"/>
<feGaussianBlur stdDeviation="100" result="effect1_foregroundBlur_2009_6"/>
</filter>
<filter id="filter2_f_2009_6" x="1111" y="1718" width="1051" height="745" filterUnits="userSpaceOnUse" color-interpolation-filters="sRGB">
<feFlood flood-opacity="0" result="BackgroundImageFix"/>
<feBlend mode="normal" in="SourceGraphic" in2="BackgroundImageFix" result="shape"/>
<feGaussianBlur stdDeviation="100" result="effect1_foregroundBlur_2009_6"/>
</filter>
<filter id="filter3_f_2009_6" x="-423" y="-294" width="1120" height="781.405" filterUnits="userSpaceOnUse" color-interpolation-filters="sRGB">
<feFlood flood-opacity="0" result="BackgroundImageFix"/>
<feBlend mode="normal" in="SourceGraphic" in2="BackgroundImageFix" result="shape"/>
<feGaussianBlur stdDeviation="100" result="effect1_foregroundBlur_2009_6"/>
</filter>
<filter id="filter4_f_2009_6" x="261.97" y="2063.31" width="754.314" height="587.691" filterUnits="userSpaceOnUse" color-interpolation-filters="sRGB">
<feFlood flood-opacity="0" result="BackgroundImageFix"/>
<feBlend mode="normal" in="SourceGraphic" in2="BackgroundImageFix" result="shape"/>
<feGaussianBlur stdDeviation="100" result="effect1_foregroundBlur_2009_6"/>
</filter>
<filter id="filter5_f_2009_6" x="-201" y="1140" width="1031.32" height="734.43" filterUnits="userSpaceOnUse" color-interpolation-filters="sRGB">
<feFlood flood-opacity="0" result="BackgroundImageFix"/>
<feBlend mode="normal" in="SourceGraphic" in2="BackgroundImageFix" result="shape"/>
<feGaussianBlur stdDeviation="100" result="effect1_foregroundBlur_2009_6"/>
</filter>
<filter id="filter6_f_2009_6" x="1380.09" y="4716.67" width="754.314" height="587.69" filterUnits="userSpaceOnUse" color-interpolation-filters="sRGB">
<feFlood flood-opacity="0" result="BackgroundImageFix"/>
<feBlend mode="normal" in="SourceGraphic" in2="BackgroundImageFix" result="shape"/>
<feGaussianBlur stdDeviation="100" result="effect1_foregroundBlur_2009_6"/>
</filter>
<filter id="filter7_f_2009_6" x="248.97" y="4904.31" width="754.314" height="587.69" filterUnits="userSpaceOnUse" color-interpolation-filters="sRGB">
<feFlood flood-opacity="0" result="BackgroundImageFix"/>
<feBlend mode="normal" in="SourceGraphic" in2="BackgroundImageFix" result="shape"/>
<feGaussianBlur stdDeviation="100" result="effect1_foregroundBlur_2009_6"/>
</filter>
<filter id="filter8_f_2009_6" x="-214" y="3981" width="1031.32" height="734.43" filterUnits="userSpaceOnUse" color-interpolation-filters="sRGB">
<feFlood flood-opacity="0" result="BackgroundImageFix"/>
<feBlend mode="normal" in="SourceGraphic" in2="BackgroundImageFix" result="shape"/>
<feGaussianBlur stdDeviation="100" result="effect1_foregroundBlur_2009_6"/>
</filter>
<clipPath id="clip0_2009_6">
<rect width="1920" height="7711" fill="white"/>
</clipPath>
<clipPath id="clip1_2009_6">
<rect width="32" height="32" fill="white" transform="translate(1447.59 40.6213) rotate(30)"/>
</clipPath>
</defs>
</svg>
