<svg width="119" height="119" viewBox="0 0 119 119" fill="none" xmlns="http://www.w3.org/2000/svg">
<g clip-path="url(#clip0_246_4300)">
<path d="M76.0415 28.4787C76.6135 28.4787 77.1737 28.1973 77.5069 27.6798L80.4012 23.192H83.6442C84.6066 23.192 85.3865 22.4121 85.3865 21.4498C85.3865 20.4874 84.6066 19.7075 83.6442 19.7075H79.4516C78.8596 19.7075 78.3076 20.008 77.9871 20.5056L74.5789 25.7923C74.0578 26.6003 74.2902 27.6789 75.0991 28.2C75.3915 28.3888 75.7183 28.4787 76.0415 28.4787Z" fill="#6194E0"/>
<path d="M91.8165 23.192H107.5C108.462 23.192 109.242 22.4121 109.242 21.4498C109.242 20.4874 108.462 19.7075 107.5 19.7075H91.8165C90.8541 19.7075 90.0742 20.4874 90.0742 21.4498C90.0742 22.4121 90.8541 23.192 91.8165 23.192Z" fill="#6194E0"/>
<path d="M91.8165 29.2478H100.965C101.928 29.2478 102.708 28.4679 102.708 27.5064C102.708 26.544 101.928 25.7642 100.965 25.7642H91.8165C90.8541 25.7642 90.0742 26.544 90.0742 27.5064C90.0742 28.4679 90.8541 29.2478 91.8165 29.2478Z" fill="#6194E0"/>
<path d="M91.8165 35.3043H100.965C101.928 35.3043 102.708 34.5235 102.708 33.5621C102.708 32.5997 101.928 31.8198 100.965 31.8198H91.8165C90.8541 31.8198 90.0742 32.5997 90.0742 33.5621C90.0742 34.5235 90.8541 35.3043 91.8165 35.3043Z" fill="#6194E0"/>
<path d="M43.8652 57.3883C44.3845 58.6558 45.4249 59.6372 46.7187 60.0821C47.2199 60.2537 47.7401 60.339 48.2594 60.339C49.0765 60.339 49.89 60.1275 50.6154 59.7126L53.9165 57.8214C55.459 56.9389 57.2122 56.4723 58.9889 56.4723H60.0112C61.788 56.4723 63.542 56.9389 65.0837 57.8214L68.3857 59.7126C69.5705 60.3908 70.9895 60.5251 72.2815 60.0821C73.5752 59.6372 74.6157 58.6558 75.135 57.3883C75.7015 56.0074 76.1028 54.7046 76.3634 53.4063C76.5522 52.4621 75.9412 51.5442 74.997 51.3554C74.0537 51.1656 73.1358 51.7775 72.947 52.7208C72.7309 53.7985 72.3922 54.8934 71.911 56.0664C71.7213 56.5304 71.3518 56.7165 71.1493 56.7864C70.9478 56.8554 70.5465 56.9344 70.1161 56.6884L66.815 54.7972C64.7468 53.6133 62.3945 52.9878 60.0112 52.9878H58.9889C56.6057 52.9878 54.2533 53.6133 52.1861 54.7972L48.884 56.6884C48.4537 56.9335 48.0524 56.8545 47.8517 56.7864C47.6484 56.7165 47.2798 56.5304 47.0891 56.0655C46.5644 54.7854 46.2066 53.5933 45.996 52.4203C45.0618 47.2117 47.3524 43.1934 49.9817 42.0576C51.2464 41.5101 53.0377 41.5646 54.7717 42.2037C54.9152 42.2573 55.0605 42.3072 55.2066 42.3563C57.9757 43.2723 61.0253 43.2723 63.7944 42.3563C63.9406 42.3072 64.0859 42.2573 64.2284 42.2037C65.9625 41.5655 67.7529 41.5101 69.0194 42.0576C70.8615 42.8538 71.8538 44.5062 72.3614 45.7518C72.7245 46.6434 73.7414 47.071 74.632 46.7078C75.5227 46.3447 75.9512 45.3278 75.588 44.4372C74.5085 41.7879 72.7145 39.8586 70.4012 38.8591C68.304 37.9521 65.6148 37.9802 63.0236 38.9344C62.9165 38.9744 62.8076 39.0125 62.6995 39.0479C60.6368 39.7306 58.3643 39.7306 56.3025 39.0479C56.1926 39.0116 56.0846 38.9744 55.9765 38.9344C53.3854 37.9802 50.6962 37.9521 48.5989 38.8591C43.374 41.117 41.61 47.7002 42.5669 53.035C42.8211 54.4531 43.246 55.8776 43.8652 57.3883Z" fill="#6194E0"/>
<path d="M113.696 9.06445H5.30394C2.3796 9.06445 0 11.4441 0 14.3693V36.2024C0 37.1648 0.779884 37.9447 1.74226 37.9447C2.70463 37.9447 3.48451 37.1648 3.48451 36.2024V14.3693C3.48451 13.3652 4.30071 12.549 5.30394 12.549H113.696C114.699 12.549 115.515 13.3652 115.515 14.3693V104.775C115.515 105.778 114.699 106.594 113.696 106.594H5.30394C4.30071 106.594 3.48451 105.778 3.48451 104.775V44.4316C3.48451 43.4702 2.70463 42.6894 1.74226 42.6894C0.779884 42.6894 0 43.4702 0 44.4316V104.775C0 107.699 2.3796 110.079 5.30394 110.079H113.696C116.62 110.079 119 107.699 119 104.775V14.3693C119 11.4441 116.62 9.06445 113.696 9.06445Z" fill="#6194E0"/>
<path d="M10.8195 21.9503H15.8347C16.7971 21.9503 17.577 21.1704 17.577 20.2081C17.577 19.2466 16.7971 18.4658 15.8347 18.4658H10.8195C9.8571 18.4658 9.07812 19.2466 9.07812 20.2081C9.07812 21.1704 9.85801 21.9503 10.8195 21.9503Z" fill="#6194E0"/>
<path d="M28.9938 21.9503C29.9562 21.9503 30.7361 21.1704 30.7361 20.2081C30.7361 19.2466 29.9562 18.4658 28.9938 18.4658H23.9786C23.0162 18.4658 22.2363 19.2466 22.2363 20.2081C22.2363 21.1704 23.0162 21.9503 23.9786 21.9503H28.9938Z" fill="#6194E0"/>
<path d="M41.9801 21.9503C42.9425 21.9503 43.7224 21.1704 43.7224 20.2081C43.7224 19.2466 42.9425 18.4658 41.9801 18.4658H36.9649C36.0025 18.4658 35.2227 19.2466 35.2227 20.2081C35.2227 21.1704 36.0025 21.9503 36.9649 21.9503H41.9801Z" fill="#6194E0"/>
<path d="M10.8195 91.7492H16.177C17.1394 91.7492 17.9192 90.9693 17.9192 90.0069C17.9192 89.0445 17.1394 88.2646 16.177 88.2646H10.8195C9.8571 88.2646 9.07812 89.0445 9.07812 90.0069C9.07812 90.9693 9.85801 91.7492 10.8195 91.7492Z" fill="#6194E0"/>
<path d="M39.9352 94.0879H34.92C33.9576 94.0879 33.1777 94.8678 33.1777 95.8301C33.1777 96.7916 33.9576 97.5715 34.92 97.5715H39.9352C40.8976 97.5715 41.6775 96.7916 41.6775 95.8301C41.6775 94.8678 40.8976 94.0879 39.9352 94.0879Z" fill="#6194E0"/>
<path d="M10.8195 97.5715H26.8139C27.7763 97.5715 28.5562 96.7916 28.5562 95.8301C28.5562 94.8678 27.7763 94.0879 26.8139 94.0879H10.8195C9.8571 94.0879 9.07812 94.8678 9.07812 95.8301C9.07812 96.7916 9.85801 97.5715 10.8195 97.5715Z" fill="#6194E0"/>
<path d="M39.9341 88.2646H24.3282C23.3658 88.2646 22.5859 89.0445 22.5859 90.0069C22.5859 90.9693 23.3658 91.7492 24.3282 91.7492H39.9341C40.8964 91.7492 41.6763 90.9693 41.6763 90.0069C41.6763 89.0445 40.8964 88.2646 39.9341 88.2646Z" fill="#6194E0"/>
<path d="M10.8195 51.0101H33.3045C33.3644 51.6038 33.4434 52.1913 33.5478 52.7696C34.2069 56.4457 35.6178 60.1917 37.9874 64.5577C38.4223 65.3603 38.8653 66.1502 39.2939 66.9137C41.1569 70.2339 42.9164 73.3698 43.807 77.0795C43.8361 77.1975 43.8642 77.3191 43.8924 77.4435C44.2065 78.8081 44.6369 80.6775 46.2883 81.717C47.2026 82.2917 48.2975 82.5795 49.3761 82.5795C50.4528 82.5795 51.5133 82.2926 52.3576 81.7188C55.3827 79.6633 55.3827 75.2855 55.3827 72.934C55.3827 71.6275 55.5244 70.4745 55.8167 69.4104C56.1145 68.3237 56.4985 67.4848 56.9915 66.8484C57.1105 66.6931 57.2911 66.5297 57.5118 66.3753C58.7011 65.5419 60.299 65.5428 61.4874 66.3744C61.709 66.5297 61.8887 66.6931 62.0077 66.8484C62.5007 67.4857 62.8847 68.3237 63.1834 69.4104C63.4757 70.4754 63.6174 71.6275 63.6174 72.934C63.6174 75.2864 63.6174 79.6633 66.6416 81.7188C68.3321 82.8673 70.8851 82.8664 72.7118 81.717C74.3632 80.6775 74.7936 78.8081 75.1068 77.4435C75.1359 77.3191 75.164 77.1975 75.1922 77.0795C76.0837 73.3698 77.8432 70.2339 79.7053 66.9137C80.1338 66.1502 80.5769 65.3603 81.0127 64.5577C83.3823 60.1917 84.7932 56.4457 85.4523 52.7696C86.1659 48.7903 85.8354 44.3743 84.5453 40.6564C82.9874 36.1641 80.1883 32.9366 76.4514 31.3214C73.3528 29.9823 69.3489 30.034 65.4686 31.463C65.3596 31.503 65.2507 31.542 65.1408 31.5802C61.5029 32.8358 57.4963 32.8358 53.8602 31.5802C53.7494 31.542 53.6405 31.503 53.5315 31.463C49.6503 30.034 45.6473 29.9814 42.5487 31.3214C38.8118 32.9366 36.0127 36.1641 34.4548 40.6564C33.7148 42.7882 33.2918 45.1496 33.1992 47.5265H10.8195C9.8571 47.5265 9.07812 48.3064 9.07812 49.2687C9.07812 50.2302 9.85801 51.0101 10.8195 51.0101ZM43.9305 34.5199C44.9782 34.0669 46.2166 33.8417 47.5448 33.8417C49.0728 33.8417 50.7189 34.1404 52.3267 34.7324C52.4575 34.7805 52.5891 34.8277 52.7226 34.8731C57.0932 36.3829 61.9069 36.382 66.2784 34.8731C66.411 34.8277 66.5426 34.7805 66.6734 34.7324C69.6785 33.6257 72.8171 33.5467 75.0696 34.5199C81.167 37.1556 83.2034 45.5727 82.0232 52.154C81.4312 55.4524 80.1375 58.8661 77.9503 62.8954C77.5264 63.6762 77.0897 64.4551 76.6675 65.2087C74.6828 68.745 72.8089 72.0851 71.8048 76.2651C71.7739 76.3931 71.7431 76.5266 71.7122 76.6618C71.5342 77.4354 71.2909 78.494 70.856 78.7672C70.2042 79.1776 69.1501 79.2103 68.6008 78.8362C67.1019 77.8185 67.1019 74.5192 67.1019 72.934C67.1019 71.3343 66.9139 69.8381 66.5435 68.488C66.1232 66.9546 65.5412 65.7208 64.7659 64.7175C64.4299 64.2826 63.9996 63.8804 63.4875 63.5209C61.1025 61.8513 57.8985 61.8504 55.5135 63.5209C55.0005 63.8804 54.5702 64.2826 54.2342 64.7175C53.4589 65.7217 52.8778 66.9546 52.4566 68.488C52.0862 69.8381 51.8991 71.3343 51.8991 72.934C51.8991 74.5192 51.8991 77.8185 50.4002 78.8372C49.8509 79.2103 48.7968 79.1785 48.145 78.7682C47.7101 78.4949 47.4668 77.4354 47.2888 76.6618C47.258 76.5266 47.2271 76.394 47.1962 76.2651C46.1921 72.086 44.3173 68.745 42.3335 65.2087C41.9113 64.4551 41.4746 63.6762 41.0507 62.8954C38.8635 58.8661 37.5698 55.4533 36.9778 52.1549C36.9106 51.7791 36.8544 51.3968 36.8081 51.011H39.9358C40.8981 51.011 41.6771 50.2311 41.6771 49.2687C41.6771 48.3064 40.8981 47.5265 39.9358 47.5265H36.68C36.9179 42.0818 39.2031 36.5636 43.9305 34.5199Z" fill="#6194E0"/>
<path d="M10.8195 58.2081H26.5034C27.4658 58.2081 28.2457 57.4283 28.2457 56.4659C28.2457 55.5035 27.4658 54.7236 26.5034 54.7236H10.8195C9.8571 54.7236 9.07812 55.5035 9.07812 56.4659C9.07812 57.4283 9.85801 58.2081 10.8195 58.2081Z" fill="#6194E0"/>
<path d="M10.8195 64.2638H19.9684C20.9307 64.2638 21.7106 63.4839 21.7106 62.5216C21.7106 61.5601 20.9307 60.7793 19.9684 60.7793H10.8195C9.8571 60.7793 9.07812 61.5601 9.07812 62.5216C9.07812 63.4839 9.85801 64.2638 10.8195 64.2638Z" fill="#6194E0"/>
<path d="M10.8195 70.3204H19.9684C20.9307 70.3204 21.7106 69.5397 21.7106 68.5782C21.7106 67.6158 20.9307 66.8359 19.9684 66.8359H10.8195C9.8571 66.8359 9.07812 67.6158 9.07812 68.5782C9.07812 69.5397 9.85801 70.3204 10.8195 70.3204Z" fill="#6194E0"/>
<path d="M69.5157 84.7715C68.5533 84.7715 67.7734 85.5514 67.7734 86.5137V91.6379C67.7734 92.6003 68.5533 93.3802 69.5157 93.3802H79.2983C80.2607 93.3802 81.0406 92.6003 81.0406 91.6379C81.0406 90.6755 80.2607 89.8957 79.2983 89.8957H71.257V86.5137C71.257 85.5514 70.4772 84.7715 69.5157 84.7715Z" fill="#6194E0"/>
<path d="M85.4551 91.6378C85.4551 92.6001 86.235 93.38 87.1973 93.38H102.422C103.384 93.38 104.164 92.6001 104.164 91.6378C104.164 90.6754 103.384 89.8955 102.422 89.8955H87.1973C86.235 89.8955 85.4551 90.6754 85.4551 91.6378Z" fill="#6194E0"/>
<path d="M87.1973 95.9512C86.235 95.9512 85.4551 96.7311 85.4551 97.6934C85.4551 98.6558 86.235 99.4357 87.1973 99.4357H96.3462C97.3086 99.4357 98.0885 98.6558 98.0885 97.6934C98.0885 96.7311 97.3086 95.9512 96.3462 95.9512H87.1973Z" fill="#6194E0"/>
</g>
<defs>
<clipPath id="clip0_246_4300">
<rect width="119" height="119" fill="white"/>
</clipPath>
</defs>
</svg>
