<svg width="119" height="119" viewBox="0 0 119 119" fill="none" xmlns="http://www.w3.org/2000/svg">
<g clip-path="url(#clip0_246_4329)">
<path d="M40.6309 9.4118C40.1745 9.4118 39.7188 9.23343 39.3769 8.87923C38.7089 8.18685 38.7289 7.08406 39.4213 6.41608L45.563 0.491973C46.2552 -0.175783 47.3582 -0.155809 48.0259 0.536335C48.6939 1.22871 48.6739 2.3315 47.9816 2.99949L41.8398 8.92359C41.5019 9.24945 41.0662 9.4118 40.6309 9.4118Z" fill="#6194E0"/>
<path d="M34.5869 55.4142C35.4321 56.2306 36.507 56.6572 37.6112 56.6572C38.1907 56.6572 38.7783 56.5397 39.3448 56.2993C40.9846 55.6032 42.0033 54.0629 42.0033 52.2791V50.5719C42.6453 51.7158 43.2271 52.5761 43.5901 53.0797C43.6763 62.4267 45.8405 73.0513 51.7217 73.0513C55.6193 73.0513 56.9023 68.0177 58.0341 63.5768C58.402 62.1335 58.976 59.882 59.5004 58.8877C60.0249 59.882 60.5988 62.1338 60.9664 63.5766C62.0983 68.0177 63.3813 73.0513 67.2791 73.0513C73.1603 73.0513 75.3249 62.4267 75.4109 53.0797C75.7737 52.5764 76.3557 51.7151 76.9975 50.571V52.2791C76.9975 54.0629 78.0162 55.6032 79.6557 56.2991C80.2225 56.5397 80.8101 56.6572 81.3896 56.6572C82.4937 56.6572 83.5689 56.2306 84.4139 55.4142C87.8586 52.0877 92.3909 45.8264 94.4209 34.8879C95.8277 27.3099 93.3246 19.6034 87.7341 14.2811L73.4341 0.487893C72.7415 -0.179631 71.6387 -0.159657 70.9709 0.532255C70.3032 1.22463 70.3229 2.32742 71.0153 2.99541L85.3239 16.7965C90.0662 21.3112 92.1866 27.8366 90.9957 34.252C89.1337 44.2844 85.0728 49.9346 81.9939 52.9081C81.6051 53.2832 81.1812 53.1614 81.0173 53.092C80.8563 53.0235 80.4814 52.8073 80.4814 52.2789L80.4812 32.6443C80.4812 26.4247 77.8926 20.4028 73.3797 16.1227L61.9782 5.3106L64.3854 3.01027C65.081 2.34577 65.1061 1.24298 64.4411 0.547352C63.7768 -0.148276 62.6738 -0.17336 61.9782 0.491609L45.6213 16.1227C41.1079 20.4026 38.5196 26.4245 38.5196 32.6443L38.5194 52.2789C38.5194 52.8073 38.1447 53.0235 37.9835 53.092C37.8193 53.1617 37.3957 53.2829 37.0069 52.9081C33.928 49.9344 29.8671 44.2841 28.0051 34.2518C26.8145 27.8366 28.9348 21.3112 33.6855 16.7886L36.3881 14.1817C37.0805 13.5137 37.1005 12.4109 36.4325 11.7185C35.7645 11.0264 34.6617 11.0064 33.9696 11.6741L31.2751 14.2732C25.6762 19.6031 23.1733 27.3094 24.5796 34.8877C26.6101 45.8261 31.1422 52.0877 34.5869 55.4142ZM72.3127 51.406C72.0649 51.7151 71.93 52.0993 71.93 52.4956C71.93 63.4879 69.1802 69.5671 67.2796 69.5671C66.9205 69.5671 66.4307 68.9677 65.9689 67.9638C65.3214 66.5549 64.8239 64.6032 64.3429 62.7161C63.2958 58.608 62.3916 55.06 59.5006 55.06C56.6096 55.06 55.7055 58.6078 54.6584 62.7161C54.1774 64.6034 53.6801 66.5547 53.0323 67.9638C52.5708 68.9677 52.081 69.5671 51.7219 69.5671C49.8213 69.5671 47.0715 63.4879 47.0715 52.4956C47.0715 52.1016 46.9361 51.7165 46.6906 51.4081C46.6437 51.3493 42.0036 45.4348 42.0036 38.1108C42.0036 32.9808 44.8142 29.5343 48.9972 29.5343C54.5091 29.5343 58.527 32.0285 58.5625 32.0511C59.1346 32.4166 59.8669 32.4166 60.4387 32.0511C60.4782 32.026 64.4409 29.5343 70.004 29.5343C74.1873 29.5343 76.9977 32.9808 76.9977 38.1108C76.9977 45.435 72.3576 51.3496 72.3127 51.406ZM48.0236 18.6462L59.4563 7.7208L70.9823 18.6509C73.7574 21.2824 75.6675 24.693 76.5093 28.3794C74.7705 26.893 72.5452 26.0503 70.0038 26.0503C65.0682 26.0503 61.202 27.7096 59.5004 28.588C57.7991 27.7096 53.9326 26.0503 48.997 26.0503C46.4556 26.0503 44.2305 26.893 42.4918 28.3794C43.3337 24.693 45.245 21.2815 48.0236 18.6462Z" fill="#6194E0"/>
<path d="M116.461 98.7596C116.145 98.5636 115.814 98.4068 115.473 98.2849C117.041 95.4929 118.96 91.0144 118.96 85.8203C118.96 78.7195 114.651 73.76 108.482 73.76C103.547 73.76 99.6805 75.419 97.9789 76.2977C96.2776 75.419 92.4109 73.76 87.4753 73.76C81.3062 73.76 76.9977 78.7195 76.9977 85.8203C76.9977 90.3633 78.4874 94.3831 79.9049 97.1819C77.5412 96.9622 75.151 97.4065 72.8971 98.5253C63.2231 103.329 55.6852 103.329 46.0117 98.5253C43.7546 97.4046 41.4212 96.9563 39.1021 97.1696C40.518 94.371 42.0033 90.3564 42.0033 85.82C42.0033 78.7193 37.6948 73.7598 31.5257 73.7598C26.5901 73.7598 22.7236 75.4188 21.0223 76.2975C19.3209 75.4188 15.4545 73.7598 10.5189 73.7598C4.34973 73.7598 0.0412479 78.7193 0.0412479 85.82C0.0412479 91.0139 1.96021 95.4924 3.52775 98.2847C3.18725 98.4066 2.85581 98.5634 2.5397 98.7594C0.975178 99.7293 0.0410156 101.438 0.0410156 103.331V117.258C0.0410156 118.22 0.820955 119 1.78299 119C2.74502 119 3.52496 118.22 3.52496 117.258V103.331C3.52496 102.642 3.8348 102.056 4.37528 101.72C4.87232 101.412 5.45902 101.385 5.98393 101.646C16.6325 106.933 25.3194 106.933 35.9679 101.646C38.7465 100.266 41.6835 100.266 44.462 101.646C55.1101 106.933 63.7975 106.933 74.4463 101.646C77.2553 100.251 80.2243 100.251 83.0328 101.646C93.6807 106.933 102.368 106.933 113.017 101.646C113.542 101.385 114.128 101.412 114.625 101.72C115.166 102.055 115.476 102.642 115.476 103.331V117.181C115.476 118.143 116.255 118.923 117.218 118.923C118.18 118.923 118.96 118.143 118.96 117.181V103.331C118.96 101.438 118.026 99.7296 116.461 98.7596ZM7.908 98.7067C6.90021 97.2882 3.52496 92.0707 3.52496 85.8203C3.52496 80.6905 6.33558 77.2439 10.5186 77.2439C16.0305 77.2439 20.0484 79.738 20.0842 79.7605C20.656 80.1261 21.3883 80.1261 21.9604 79.7605C21.9996 79.7354 25.9625 77.2439 31.5257 77.2439C35.7087 77.2439 38.5193 80.6905 38.5193 85.8203C38.5193 91.9766 35.2983 97.0648 34.1858 98.6382C24.7496 103.264 17.3244 103.286 7.908 98.7067ZM84.815 98.6379C83.7029 97.0653 80.4816 91.9773 80.4816 85.8203C80.4816 80.6905 83.2922 77.2439 87.4753 77.2439C92.9871 77.2439 97.0051 79.738 97.0408 79.7605C97.6099 80.1242 98.342 80.1235 98.9129 79.7633C98.9528 79.7382 102.97 77.2439 108.482 77.2439C112.666 77.2439 115.476 80.6905 115.476 85.8203C115.476 92.0714 112.101 97.2887 111.093 98.7069C101.677 103.286 94.2516 103.264 84.815 98.6379Z" fill="#6194E0"/>
</g>
<defs>
<clipPath id="clip0_246_4329">
<rect width="119" height="119" fill="white"/>
</clipPath>
</defs>
</svg>
