<svg width="119" height="119" viewBox="0 0 119 119" fill="none" xmlns="http://www.w3.org/2000/svg">
<path d="M33.684 84.9141C32.0166 79.1129 30.6965 74.0702 29.7605 69.9266C28.4901 64.3008 26.1928 58.9733 22.9324 54.0922C20.4418 50.3634 19.1253 46.0123 19.1253 41.5084C19.1251 36.4321 20.8322 31.5419 23.9548 27.5584C24.6679 28.6452 25.2476 29.908 25.6069 31.3767L26.3311 34.3354C26.5884 35.3862 27.5237 36.1199 28.6053 36.1199C29.687 36.1199 30.6223 35.3862 30.8796 34.3354L31.6038 31.3769C32.8385 26.3343 36.6546 23.7023 39.6382 22.3822C39.7293 22.3417 39.8169 22.2938 39.8997 22.2385C40.586 21.7809 40.996 21.0151 40.996 20.19C40.996 19.7068 40.8519 19.2459 40.5976 18.8533C41.0687 18.8277 41.5401 18.8159 42.0107 18.8191C46.216 18.8547 50.3126 20.0493 53.858 22.2741C56.0369 23.6414 58.5341 24.325 61.0315 24.325C63.5288 24.325 66.0262 23.6414 68.2049 22.2741C71.0549 20.4856 74.1926 19.3772 77.5309 18.979C78.4863 18.8652 79.1685 17.9982 79.0546 17.0427C78.9407 16.087 78.0731 15.4044 77.1183 15.519C73.2643 15.9785 69.6424 17.2582 66.3528 19.3223C63.12 21.3511 58.9424 21.3511 55.7097 19.3223C51.6174 16.7543 46.8904 15.3753 42.0398 15.3347C40.0637 15.3175 38.093 15.5273 36.176 15.9515C34.1953 14.4129 32.3836 12.1898 31.6034 9.0028L30.8791 6.0443C30.6218 4.99352 29.6866 4.25977 28.6049 4.25977C27.5232 4.25977 26.5879 4.99352 26.3306 6.0443L25.6064 9.0028C24.372 14.0452 20.5559 16.6774 17.5723 17.9975C17.4812 18.038 17.3936 18.0858 17.3108 18.1412C16.6245 18.5988 16.2145 19.3646 16.2145 20.1897C16.2145 21.0148 16.6245 21.7807 17.3108 22.2383C17.3936 22.2936 17.4812 22.3417 17.5723 22.3819C18.8557 22.9497 20.293 23.7614 21.6129 24.9021C17.7526 29.5854 15.6404 35.4324 15.6406 41.5084C15.6406 46.7033 17.1602 51.724 20.0348 56.0276C23.057 60.5519 25.1855 65.4864 26.3615 70.6941C27.3122 74.9028 28.6488 80.0109 30.3348 85.8766C30.5544 86.6405 31.2512 87.1379 32.0082 87.1379C32.1677 87.1379 32.3297 87.1158 32.4905 87.0696C33.4156 86.8042 33.9497 85.8389 33.684 84.9141ZM28.6053 11.1655C29.8834 14.9677 32.4924 18.0433 36.2541 20.19C32.4924 22.3366 29.8834 25.412 28.6053 29.2144C27.3275 25.4125 24.7186 22.3368 20.9568 20.19C24.7183 18.0431 27.3275 14.9674 28.6053 11.1655Z" fill="#6194E0"/>
<path d="M116.078 48.1124L113.425 48.0931C110.293 48.0703 107.793 47.6427 105.827 47.0607C106.219 45.2443 106.421 43.3828 106.421 41.5088C106.421 29.2458 97.7102 18.48 85.7086 15.9106C84.768 15.7091 83.8415 16.3085 83.64 17.2496C83.4385 18.1906 84.0382 19.1166 84.979 19.3181C95.3843 21.5459 102.936 30.8785 102.936 41.5091C102.936 42.9352 102.801 44.3523 102.539 45.7417C101.133 44.9968 100.297 44.2677 99.9126 43.8832C99.454 43.4247 99.0233 42.9257 98.6322 42.3995C97.8835 41.3924 96.7345 40.8132 95.4798 40.8102C95.4764 40.8102 95.4733 40.8102 95.4698 40.8102C94.2155 40.8102 93.0643 41.3856 92.3101 42.3902C91.9201 42.9099 91.4833 43.4124 91.0122 43.8835C89.4655 45.4305 85.6533 48.0343 77.5004 48.0933L74.8478 48.1126C73.2371 48.1242 71.9267 49.4442 71.9267 51.0546V68.8867C71.9267 72.9118 72.8624 76.9504 74.633 80.5659C76.4033 84.1808 79.02 87.3963 82.2 89.8644L86.0286 92.8359C84.6281 97.4363 83.055 102.414 81.3435 107.656C80.4391 110.425 78.0777 111.33 76.167 111.251C74.2572 111.173 71.9757 110.08 71.2996 107.246C68.3025 94.6784 66.0322 84.0425 64.5524 75.6342C64.2463 73.8943 62.7978 72.6791 61.03 72.6789C59.2625 72.6789 57.8136 73.8943 57.5072 75.6339C56.0265 84.0469 53.7562 94.6828 50.76 107.246C50.0839 110.08 47.8022 111.173 45.8926 111.251C43.9872 111.328 41.6205 110.425 40.7164 107.656C38.9107 102.125 37.2572 96.8871 35.8027 92.0866C35.5236 91.1655 34.5495 90.6456 33.6301 90.9245C32.7092 91.2036 32.1888 92.1763 32.4679 93.0972C33.9299 97.9213 35.5903 103.183 37.4039 108.737C38.6462 112.543 42.034 114.899 46.0344 114.733C50.0351 114.57 53.2204 111.949 54.1492 108.055C57.1618 95.424 59.4463 84.7193 60.9392 76.2382C60.9461 76.1973 60.9531 76.1773 60.951 76.1804C60.9829 76.1578 61.0774 76.158 61.1014 76.1725C61.1046 76.1771 61.1137 76.198 61.1207 76.2382C62.6126 84.7147 64.8971 95.4193 67.9107 108.055C68.8392 111.949 72.0245 114.57 76.0252 114.733C76.1558 114.738 76.2855 114.741 76.4147 114.741C80.2446 114.741 83.4546 112.418 84.6564 108.738C86.2183 103.954 87.6667 99.3858 88.9744 95.1223L90.9272 96.6379C92.2187 97.6401 93.8292 98.1921 95.4626 98.1921C97.0961 98.1921 98.7066 97.6401 99.9984 96.6379L108.725 89.8649C111.905 87.3968 114.521 84.1815 116.292 80.5664C118.063 76.9501 118.999 72.9116 118.999 68.8865V51.0544C118.999 49.4439 117.688 48.124 116.078 48.1124ZM115.514 68.8865C115.514 72.3835 114.701 75.8922 113.163 79.0331C111.625 82.1738 109.352 84.9673 106.589 87.1114L97.8624 93.8842C97.1689 94.4222 96.3391 94.7067 95.4629 94.7067C94.5866 94.7067 93.7569 94.4224 93.0638 93.8844L84.3371 87.1114C81.5743 84.9671 79.301 82.1736 77.7628 79.0331C76.2246 75.8922 75.4116 72.3835 75.4116 68.8865V51.5929L77.5262 51.5776C86.9221 51.5092 91.5526 48.2711 93.4766 46.3469C94.0635 45.7598 94.6087 45.132 95.0973 44.4817C95.2193 44.319 95.3831 44.2944 95.4705 44.2944H95.4719C95.5761 44.2946 95.7236 44.3267 95.8361 44.4778C96.3284 45.1399 96.8711 45.7686 97.4492 46.3469C98.9982 47.896 103.653 51.5067 113.4 51.5776L115.514 51.5929V68.8865Z" fill="#6194E0"/>
<path d="M110.448 54.2691C107.402 53.9251 104.568 53.2803 102.026 52.3525C100.336 51.7359 98.8106 51.0019 97.4918 50.1708C96.259 49.3942 94.6669 49.3942 93.4346 50.1708C92.1159 51.0017 90.5905 51.7359 88.9003 52.3527C86.3583 53.2806 83.5249 53.9253 80.478 54.2693C79.2111 54.4122 78.2559 55.4823 78.2559 56.7583V68.7378C78.2559 75.1273 81.1507 81.0387 86.1984 84.9564L93.9271 90.9548C94.3794 91.3055 94.9214 91.481 95.4634 91.481C96.0055 91.481 96.5475 91.3055 96.9998 90.9543L104.728 84.9562C108.612 81.9414 111.286 77.6502 112.257 72.8728C112.449 71.9299 111.839 71.0102 110.896 70.8187C109.953 70.6267 109.034 71.2361 108.842 72.179C108.037 76.1397 105.818 79.6997 102.592 82.2036L95.4634 87.736L88.3353 82.2036C84.1445 78.9509 81.7406 74.0426 81.7406 68.7376V57.6248C84.7337 57.2294 87.5404 56.5582 90.0952 55.6259C92.0169 54.9247 93.7654 54.0813 95.2928 53.1188C95.3981 53.0523 95.5288 53.0523 95.634 53.1188C97.1615 54.0813 98.9103 54.925 100.832 55.6259C103.386 56.5584 106.193 57.2297 109.186 57.6248V63.9729C109.186 64.9351 109.966 65.7151 110.929 65.7151C111.891 65.7151 112.671 64.9351 112.671 63.9729V56.7581C112.67 55.4821 111.715 54.412 110.448 54.2691Z" fill="#6194E0"/>
<path d="M103.045 60.7279L94.362 71.7466L90.141 66.2351C89.5562 65.4714 88.4632 65.3259 87.6985 65.9112C86.9348 66.4962 86.7897 67.5897 87.3747 68.3537L92.9591 75.6457C93.2861 76.0729 93.7921 76.3248 94.3302 76.3285H94.3423C94.8759 76.3285 95.38 76.084 95.7105 75.6647L105.781 62.8846C106.377 62.1287 106.247 61.0333 105.491 60.4378C104.736 59.8424 103.64 59.9721 103.045 60.7279Z" fill="#6194E0"/>
<path d="M13.2834 68.1704C13.2006 68.115 13.113 68.0672 13.0221 68.027C11.0919 67.173 9.89373 65.844 9.4612 64.0769L9.0963 62.5855C9.0963 62.5853 9.09606 62.5848 9.09606 62.5846C8.87108 61.6677 8.05458 61.0273 7.11048 61.0273C6.16662 61.0273 5.35012 61.6677 5.1249 62.5855L4.76 64.0769C4.32746 65.844 3.12933 67.173 1.19906 68.027C1.10819 68.0672 1.02056 68.1153 0.937822 68.1704C0.350725 68.5615 0.000232422 69.2163 0 69.9219C0 70.6273 0.35026 71.2823 0.937357 71.6737C1.02033 71.729 1.10796 71.7771 1.19906 71.8175C3.12933 72.6714 4.32746 74.0007 4.76 75.7675L5.12513 77.2601C5.35012 78.1771 6.16662 78.8176 7.11048 78.8176C8.05458 78.8176 8.87108 78.1773 9.0963 77.2592L9.4612 75.7678C9.89373 74.0009 11.0919 72.6717 13.0221 71.8178C13.5995 71.5412 14.1217 70.9387 14.2212 69.9221C14.221 69.2163 13.8705 68.5613 13.2834 68.1704ZM7.11048 72.4281C6.52896 71.4717 5.76267 70.6312 4.82485 69.9219C5.76267 69.2125 6.52873 68.3723 7.11025 67.4157C7.69177 68.3721 8.45807 69.2125 9.39589 69.9219C8.45807 70.6315 7.69177 71.4717 7.11048 72.4281Z" fill="#6194E0"/>
<path d="M50.5341 37.1786C48.6038 36.3246 47.4057 34.9957 46.9732 33.2283L46.608 31.7371C46.3835 30.8195 45.567 30.1787 44.6224 30.1787C43.6779 30.1787 42.8614 30.8195 42.6369 31.7369L42.2717 33.2285C41.8392 34.9957 40.641 36.3249 38.7108 37.1786C38.6197 37.219 38.5321 37.2671 38.4491 37.3224C37.862 37.7138 37.5117 38.3688 37.5117 39.0742C37.512 39.7796 37.8624 40.4346 38.4495 40.8257C38.5323 40.881 38.6199 40.9289 38.7108 40.9691C40.641 41.823 41.8392 43.152 42.2717 44.9194L42.6369 46.4106C42.8614 47.3282 43.6779 47.969 44.6224 47.969C45.567 47.969 46.3835 47.3282 46.608 46.4111L46.9732 44.9196C47.4057 43.1525 48.6038 41.8235 50.5341 40.9694C51.1112 40.693 51.6332 40.0908 51.7331 39.0744C51.7278 38.5601 51.3817 37.5788 50.5341 37.1786ZM44.6222 41.5802C44.0407 40.6237 43.2744 39.7831 42.3368 39.074C43.2746 38.3646 44.0407 37.5242 44.6222 36.5678C45.2037 37.5242 45.9698 38.3648 46.9076 39.074C45.97 39.7831 45.2037 40.6237 44.6222 41.5802Z" fill="#6194E0"/>
</svg>
