<svg width="119" height="119" viewBox="0 0 119 119" fill="none" xmlns="http://www.w3.org/2000/svg">
<mask id="mask0_246_4362" style="mask-type:luminance" maskUnits="userSpaceOnUse" x="0" y="0" width="119" height="119">
<path d="M0 7.62939e-06H119V119H0V7.62939e-06Z" fill="white"/>
</mask>
<g mask="url(#mask0_246_4362)">
<path d="M15.9384 107.993C11.5131 105.05 8.87298 101.404 8.86926 97.0582C8.86322 89.7992 9.08634 78.3134 10.3926 75.8594C12.5271 71.8497 16.6475 72.99 17.6385 75.8004" stroke="#6194E0" stroke-width="4" stroke-miterlimit="10" stroke-linecap="round"/>
<path d="M54.4263 79.2945C56.0906 75.1653 61.9521 75.2097 63.5535 79.3638C63.7201 79.7961 64.1355 80.0811 64.5989 80.0811H95.7697C97.3337 80.0811 98.7984 79.3285 99.7188 78.0641C102.158 74.7133 105.776 70.539 108.608 75.8598C109.914 78.3135 110.138 89.7993 110.132 97.0583C110.114 117.332 52.7645 122.342 24.3906 112.096" stroke="#6194E0" stroke-width="4" stroke-miterlimit="10" stroke-linecap="round"/>
<path d="M47.3015 50.3708C44.9147 50.2806 42.677 50.8901 40.7732 52.0103C38.0567 53.4988 35.3397 53.4988 32.6231 52.0103C30.7193 50.8901 28.4814 50.2806 26.0951 50.3708C19.7885 50.6086 14.6804 55.8213 14.5393 62.1558C14.318 72.0818 23.0348 86.1715 24.4646 95.5332C24.8725 98.2042 25.6628 99.7793 27.7427 99.7793C29.1435 99.7793 30.3403 98.0866 31.2379 95.4033C31.931 93.3308 33.0317 89.2431 33.6307 87.1899C34.6752 83.6104 38.7214 83.6104 39.7657 87.1899C40.3649 89.2431 41.4654 93.3308 42.1585 95.4033C43.0561 98.0866 44.253 99.7793 45.6538 99.7793C47.7333 99.7793 48.5238 98.2042 48.9317 95.5332C50.3615 86.1715 59.0783 72.0818 58.857 62.1558C58.7157 55.8213 53.6078 50.6086 47.3015 50.3708Z" stroke="#6194E0" stroke-width="4" stroke-miterlimit="10" stroke-linecap="round" stroke-linejoin="round"/>
<path d="M69.7617 73.8022V80.1508H74.1884L77.1806 101.285C77.3687 102.613 78.5052 103.6 79.8465 103.6C81.1994 103.6 82.3422 102.596 82.5163 101.254L85.2552 80.1508H89.6819V73.8022H69.7617Z" stroke="#6194E0" stroke-width="4" stroke-miterlimit="10" stroke-linecap="round" stroke-linejoin="round"/>
<path d="M95.7092 3.27942C94.1023 2.37205 92.2705 1.82516 90.3249 1.75171C87.9382 1.66176 85.7004 2.27094 83.7967 3.39122C81.0801 4.87965 78.3631 4.87965 75.6466 3.39122C73.7428 2.27094 71.5048 1.66176 69.1183 1.75171C62.812 1.98948 57.7038 7.20224 57.5627 13.5367C57.4324 19.38 60.399 26.6655 63.1537 33.5805C63.6538 34.8367 64.8685 35.6611 66.2205 35.6611H93.2228C94.5748 35.6611 95.7894 34.8367 96.2896 33.5805C99.0442 26.6655 102.011 19.38 101.88 13.5367C101.854 12.3548 101.655 11.2122 101.307 10.1335" stroke="#6194E0" stroke-width="4" stroke-miterlimit="10" stroke-linecap="round" stroke-linejoin="round"/>
<path d="M83.6674 57.142L87.7169 35.6611H71.7246L75.7741 57.142C76.5966 61.5048 82.8448 61.5048 83.6674 57.142Z" stroke="#6194E0" stroke-width="4" stroke-miterlimit="10" stroke-linecap="round" stroke-linejoin="round"/>
<path d="M87.7164 35.661H83.9042L73.6562 45.9087L75.355 54.9199L86.1141 44.1609L87.7164 35.661Z" stroke="#6194E0" stroke-width="4" stroke-miterlimit="10" stroke-linecap="round" stroke-linejoin="round"/>
<path d="M27.2487 57.4078C24.0896 57.4078 21.5332 59.9642 21.5332 63.123" stroke="#6194E0" stroke-width="4" stroke-miterlimit="10" stroke-linecap="round"/>
<path d="M70.2604 8.69955C67.1013 8.69955 64.5449 11.256 64.5449 14.415" stroke="#6194E0" stroke-width="4" stroke-miterlimit="10" stroke-linecap="round"/>
</g>
</svg>
