<svg width="48" height="48" viewBox="0 0 48 48" fill="none" xmlns="http://www.w3.org/2000/svg">
<path d="M18.0671 30.48H17.6783C12.3983 30.2784 8.10229 25.7088 8.10229 20.2896V18.8496C8.10229 18.404 8.27929 17.9767 8.59436 17.6617C8.90942 17.3466 9.33673 17.1696 9.78229 17.1696H10.2623C10.7079 17.1696 11.1352 17.3466 11.4502 17.6617C11.7653 17.9767 11.9423 18.404 11.9423 18.8496V20.5296C11.9461 22.1507 12.5924 23.7041 13.7396 24.8495C14.8868 25.9948 16.4412 26.6387 18.0623 26.64H18.3647C19.9587 26.539 21.4526 25.8278 22.536 24.6542C23.6193 23.4805 24.2089 21.9346 24.1823 20.3376V18.84C24.1823 18.3944 24.3593 17.9671 24.6744 17.6521C24.9894 17.337 25.4167 17.16 25.8623 17.16H26.3423C26.7879 17.16 27.2152 17.337 27.5302 17.6521C27.8453 17.9671 28.0223 18.3944 28.0223 18.84V20.52C28.0198 23.1599 26.9702 25.6911 25.104 27.5583C23.2377 29.4254 20.707 30.4762 18.0671 30.48ZM36.3071 29.5824C35.3429 29.5849 34.4107 29.9284 33.6755 30.5521C32.9402 31.1758 32.4492 32.0395 32.2895 32.9904C31.0784 33.1508 29.9667 33.7452 29.1607 34.6633C28.3547 35.5814 27.9093 36.7607 27.9071 37.9824C27.9071 39.0008 27.5025 39.9775 26.7824 40.6977C26.0622 41.4178 25.0855 41.8224 24.0671 41.8224H23.2511C22.0179 41.8211 20.8356 41.3307 19.9636 40.4587C19.0916 39.5867 18.6012 38.4044 18.5999 37.1712V33.1824H18.9551C19.4458 33.1813 19.922 33.0156 20.3075 32.7119C20.693 32.4082 20.9655 31.984 21.0815 31.5072C20.0997 31.7791 19.0858 31.9179 18.0671 31.92H17.6255C16.7494 31.8856 15.8807 31.7454 15.0383 31.5024C15.1522 31.9802 15.4232 32.406 15.8079 32.7115C16.1926 33.0169 16.6687 33.1845 17.1599 33.1872V37.176C17.1624 38.7903 17.8052 40.3376 18.9471 41.4786C20.089 42.6196 21.6368 43.2611 23.2511 43.2624H24.0623C25.4626 43.2624 26.8056 42.7061 27.7958 41.7159C28.786 40.7257 29.3423 39.3827 29.3423 37.9824C29.3443 37.1402 29.6411 36.3253 30.1812 35.6791C30.7213 35.0329 31.4706 34.5962 32.2991 34.4448C32.4474 35.2039 32.8085 35.9053 33.3402 36.467C33.8719 37.0288 34.5524 37.4278 35.3022 37.6177C36.0521 37.8075 36.8404 37.7802 37.5754 37.539C38.3103 37.2979 38.9616 36.8528 39.4532 36.2556C39.9448 35.6585 40.2566 34.9339 40.3521 34.1663C40.4477 33.3987 40.323 32.6198 39.9928 31.9204C39.6625 31.2209 39.1402 30.6298 38.4868 30.2158C37.8334 29.8019 37.0758 29.5822 36.3023 29.5824H36.3071ZM36.3071 34.7424C36.0935 34.7424 35.8847 34.6791 35.7071 34.5604C35.5295 34.4417 35.391 34.273 35.3093 34.0757C35.2276 33.8783 35.2062 33.6612 35.2478 33.4517C35.2895 33.2422 35.3924 33.0498 35.5434 32.8987C35.6945 32.7477 35.8869 32.6448 36.0964 32.6031C36.3059 32.5615 36.523 32.5829 36.7204 32.6646C36.9177 32.7463 37.0864 32.8848 37.2051 33.0624C37.3238 33.24 37.3871 33.4488 37.3871 33.6624C37.3871 33.8046 37.359 33.9455 37.3044 34.0768C37.2499 34.2081 37.1699 34.3274 37.0691 34.4278C36.9683 34.5281 36.8487 34.6076 36.7171 34.6616C36.5855 34.7156 36.4445 34.743 36.3023 34.7424H36.3071ZM9.3599 15.7536V10.08C9.3599 9.01318 9.78368 7.99007 10.538 7.23572C11.2924 6.48138 12.3155 6.05759 13.3823 6.05759H13.4399V5.87999C13.4372 5.76903 13.473 5.66056 13.5413 5.57305C13.6095 5.48553 13.706 5.42437 13.8143 5.39999L15.5855 5.00159C15.7964 4.95403 16.0152 4.95456 16.2259 5.00313C16.4365 5.0517 16.6335 5.14707 16.8022 5.28216C16.971 5.41725 17.1071 5.58859 17.2006 5.78349C17.2941 5.97839 17.3425 6.19183 17.3423 6.40799V7.72799C17.3425 7.94415 17.2941 8.15759 17.2006 8.35249C17.1071 8.54738 16.971 8.71873 16.8022 8.85382C16.6335 8.98891 16.4365 9.08428 16.2259 9.13285C16.0152 9.18142 15.7964 9.18194 15.5855 9.13439L13.8143 8.73599C13.706 8.7116 13.6095 8.65045 13.5413 8.56293C13.473 8.47542 13.4372 8.36695 13.4399 8.25599V7.50239H13.3823C12.6982 7.50239 12.0421 7.7738 11.558 8.25706C11.0738 8.74032 10.8012 9.39593 10.7999 10.08V15.7728C10.6224 15.7413 10.4425 15.7252 10.2623 15.7248H9.78229C9.64101 15.7248 9.49988 15.7344 9.3599 15.7536ZM19.3823 8.86559C19.2135 8.73101 19.0771 8.56019 18.9832 8.36576C18.8893 8.17134 18.8403 7.95829 18.8399 7.74239V6.42239C18.8396 6.20623 18.8881 5.99279 18.9815 5.79789C19.075 5.60299 19.2112 5.43165 19.38 5.29656C19.5487 5.16147 19.7457 5.0661 19.9563 5.01753C20.167 4.96896 20.3858 4.96843 20.5967 5.01599L22.3679 5.41439C22.4762 5.43877 22.5727 5.49993 22.6409 5.58745C22.7092 5.67496 22.745 5.78343 22.7423 5.89439V6.07679H22.8047C23.8673 6.07805 24.8863 6.49976 25.6391 7.24982C26.3919 7.99988 26.8172 9.01734 26.8223 10.08V15.7632C26.6637 15.7364 26.5032 15.722 26.3423 15.72H25.8623C25.7014 15.722 25.5409 15.7364 25.3823 15.7632V10.08C25.3823 9.39592 25.1109 8.73981 24.6276 8.25565C24.1444 7.7715 23.4888 7.49886 22.8047 7.49759H22.7471V8.27999C22.7498 8.39095 22.714 8.49942 22.6457 8.58693C22.5775 8.67445 22.481 8.7356 22.3727 8.75999L20.6015 9.15839C20.3908 9.20522 20.1723 9.20408 19.962 9.15506C19.7518 9.10604 19.5553 9.01039 19.3871 8.87519L19.3823 8.86559Z" fill="white"/>
</svg>
