<svg width="40" height="40" viewBox="0 0 40 40" fill="none" xmlns="http://www.w3.org/2000/svg">
<path d="M30.5639 17.16C30.3412 17.1622 30.1203 17.1199 29.9142 17.0354C29.7081 16.9509 29.521 16.8259 29.3639 16.668L23.3279 10.624C23.1719 10.4679 23.0482 10.2827 22.9637 10.0789C22.8793 9.87506 22.8359 9.65659 22.8359 9.43596C22.8359 9.21533 22.8793 8.99685 22.9637 8.79302C23.0482 8.58918 23.1719 8.40397 23.3279 8.24796C23.4839 8.09195 23.6692 7.96819 23.873 7.88376C24.0768 7.79933 24.2953 7.75587 24.5159 7.75587C24.7366 7.75587 24.955 7.79933 25.1589 7.88376C25.3627 7.96819 25.5479 8.09195 25.7039 8.24796L31.7519 14.296C31.9876 14.5316 32.1479 14.8321 32.2124 15.1591C32.2768 15.4862 32.2426 15.825 32.1139 16.1325C31.9853 16.4399 31.768 16.7022 31.4899 16.8859C31.2117 17.0696 30.8852 17.1664 30.5519 17.164L30.5639 17.16ZM12.9999 23.528L12.8719 23.656C12.4849 24.0416 12.2381 24.5457 12.1707 25.0879C12.1032 25.6301 12.2192 26.1793 12.4999 26.648L7.48394 31.668C7.42499 31.7229 7.3777 31.7891 7.34491 31.8627C7.31212 31.9363 7.29448 32.0158 7.29306 32.0963C7.29164 32.1769 7.30646 32.2569 7.33664 32.3316C7.36681 32.4063 7.41173 32.4742 7.4687 32.5312C7.52568 32.5882 7.59355 32.6331 7.66826 32.6633C7.74297 32.6934 7.82299 32.7083 7.90355 32.7068C7.98412 32.7054 8.06357 32.6878 8.13717 32.655C8.21077 32.6222 8.27701 32.5749 8.33194 32.516L13.3519 27.496C13.8206 27.7759 14.3692 27.8916 14.911 27.825C15.4529 27.7584 15.957 27.5131 16.3439 27.128L16.4719 27L12.9999 23.528ZM17.9279 24.056C17.8144 23.9435 17.7502 23.7906 17.7495 23.6308C17.7487 23.471 17.8115 23.3175 17.9239 23.204C18.0364 23.0904 18.1893 23.0263 18.3491 23.0255C18.5089 23.0248 18.6624 23.0875 18.7759 23.2L21.0759 25.5L22.5079 24.064L20.2079 21.764C20.102 21.6502 20.0443 21.4998 20.047 21.3443C20.0497 21.1889 20.1127 21.0406 20.2226 20.9307C20.3326 20.8207 20.4809 20.7578 20.6363 20.755C20.7918 20.7523 20.9422 20.81 21.0559 20.916L23.3559 23.216L24.7999 21.788L22.4999 19.488C22.394 19.3742 22.3363 19.2238 22.339 19.0683C22.3417 18.9129 22.4047 18.7646 22.5146 18.6547C22.6246 18.5447 22.7729 18.4818 22.9283 18.479C23.0838 18.4763 23.2342 18.534 23.3479 18.64L25.6479 20.94L27.0839 19.504L24.7759 17.2C24.67 17.0862 24.6123 16.9358 24.615 16.7803C24.6177 16.6249 24.6807 16.4766 24.7906 16.3667C24.9006 16.2567 25.0489 16.1938 25.2043 16.191C25.3598 16.1883 25.5102 16.246 25.6239 16.352L27.9239 18.652L28.7999 17.768C28.6986 17.6917 28.6024 17.6088 28.5119 17.52L22.4799 11.472C22.391 11.3815 22.3082 11.2853 22.2319 11.184L13.7639 19.652C13.3753 20.0425 13.1571 20.571 13.1571 21.122C13.1571 21.6729 13.3753 22.2014 13.7639 22.592L17.4039 26.232C17.771 26.5998 18.2635 26.8153 18.7827 26.8354C19.302 26.8554 19.8096 26.6784 20.2039 26.34L17.9279 24.056ZM35.5279 10.508L29.5279 4.50796C29.4142 4.40197 29.2638 4.34427 29.1083 4.34702C28.9529 4.34976 28.8046 4.41273 28.6946 4.52266C28.5847 4.63259 28.5217 4.7809 28.519 4.93634C28.5163 5.09178 28.574 5.24222 28.6799 5.35596L29.7839 6.45996L27.7199 8.56796L29.1999 10.028L31.2919 7.93596L32.1239 8.79996L30.0319 10.88L31.4959 12.344L33.5999 10.252L34.7039 11.356C34.8177 11.4619 34.9681 11.5196 35.1236 11.5169C35.279 11.5142 35.4273 11.4512 35.5372 11.3413C35.6472 11.2313 35.7101 11.083 35.7129 10.9276C35.7156 10.7721 35.6579 10.6217 35.5519 10.508H35.5279Z" fill="white"/>
</svg>
