<svg width="56" height="56" viewBox="0 0 56 56" fill="none" xmlns="http://www.w3.org/2000/svg">
<rect x="27.8857" width="39" height="39" rx="10" transform="rotate(45 27.8857 0)" fill="#E08761"/>
<path d="M25.9826 31.9763L29.7649 36.2767C31.1649 37.8692 31.8661 38.666 32.5999 38.4712C33.3326 38.2775 33.5846 37.2298 34.0874 35.1333L36.8758 23.504C37.6516 20.2747 38.0389 18.6612 37.1779 17.8643C36.3169 17.0675 34.8248 17.6602 31.8404 18.8443L17.9968 24.3428C15.6098 25.2913 14.4163 25.765 14.3404 26.5793C14.3315 26.6623 14.3315 26.746 14.3404 26.829C14.4139 27.6445 15.6051 28.1217 17.9898 29.0772C19.0689 29.51 19.6091 29.727 19.9964 30.1412C20.04 30.1878 20.082 30.2361 20.1224 30.2858C20.4794 30.7292 20.6311 31.3125 20.9356 32.4745L21.5061 34.6527C21.8013 35.7843 21.9494 36.3513 22.3379 36.4283C22.7264 36.5053 23.0636 36.0363 23.7391 35.0972L25.9826 31.9763ZM25.9826 31.9763L25.6128 31.5913C25.1904 31.1503 24.9793 30.931 24.9793 30.658C24.9793 30.385 25.1893 30.1645 25.6128 29.7247L29.7813 25.38" stroke="white" stroke-width="1.75" stroke-linecap="round" stroke-linejoin="round"/>
</svg>
