<svg width="56" height="56" viewBox="0 0 56 56" fill="none" xmlns="http://www.w3.org/2000/svg">
<rect x="27.7314" width="39" height="39" rx="10" transform="rotate(45 27.7314 0)" fill="#E08761"/>
<path d="M36.3792 18.7281C35.3095 17.6479 34.0354 16.7914 32.6313 16.2085C31.2272 15.6256 29.7212 15.328 28.2009 15.3331C21.8309 15.3331 16.6392 20.5247 16.6392 26.8947C16.6392 28.9364 17.1759 30.9197 18.1792 32.6697L16.5459 38.6664L22.6709 37.0564C24.3626 37.9781 26.2642 38.4681 28.2009 38.4681C34.5709 38.4681 39.7626 33.2764 39.7626 26.9064C39.7626 23.8147 38.5609 20.9097 36.3792 18.7281ZM28.2009 36.5081C26.4742 36.5081 24.7826 36.0414 23.3009 35.1664L22.9509 34.9564L19.3109 35.9131L20.2792 32.3664L20.0459 32.0047C19.0864 30.473 18.577 28.7022 18.5759 26.8947C18.5759 21.5981 22.8926 17.2814 28.1892 17.2814C30.7559 17.2814 33.1709 18.2847 34.9792 20.1047C35.8748 20.9959 36.5845 22.056 37.0671 23.2236C37.5498 24.3912 37.7958 25.643 37.7909 26.9064C37.8142 32.2031 33.4976 36.5081 28.2009 36.5081ZM33.4742 29.3214C33.1826 29.1814 31.7592 28.4814 31.5026 28.3764C31.2342 28.2831 31.0476 28.2364 30.8492 28.5164C30.6509 28.8081 30.1026 29.4614 29.9392 29.6481C29.7759 29.8464 29.6009 29.8697 29.3092 29.7181C29.0176 29.5781 28.0842 29.2631 26.9876 28.2831C26.1242 27.5131 25.5526 26.5681 25.3776 26.2764C25.2142 25.9847 25.3542 25.8331 25.5059 25.6814C25.6342 25.5531 25.7976 25.3431 25.9376 25.1797C26.0776 25.0164 26.1359 24.8881 26.2292 24.7014C26.3226 24.5031 26.2759 24.3397 26.2059 24.1997C26.1359 24.0597 25.5526 22.6364 25.3192 22.0531C25.0859 21.4931 24.8409 21.5631 24.6659 21.5514H24.1059C23.9076 21.5514 23.6042 21.6214 23.3359 21.9131C23.0792 22.2047 22.3326 22.9047 22.3326 24.3281C22.3326 25.7514 23.3709 27.1281 23.5109 27.3147C23.6509 27.5131 25.5526 30.4297 28.4459 31.6781C29.1342 31.9814 29.6709 32.1564 30.0909 32.2847C30.7792 32.5064 31.4092 32.4714 31.9109 32.4014C32.4709 32.3197 33.6259 31.7014 33.8592 31.0247C34.1042 30.3481 34.1042 29.7764 34.0226 29.6481C33.9409 29.5197 33.7659 29.4614 33.4742 29.3214Z" fill="white"/>
</svg>
