<svg width="1920" height="10278" viewBox="0 0 1920 10278" fill="none" xmlns="http://www.w3.org/2000/svg">
<g clip-path="url(#clip0_2085_989)">
<rect x="465.162" y="989" width="66.3238" height="66.3238" rx="8" transform="rotate(30 465.162 989)" fill="#6194E0"/>
<g opacity="0.25" filter="url(#filter0_f_2085_989)">
<ellipse cx="1797.04" cy="852.027" rx="202.041" ry="107.027" fill="#6194E0"/>
</g>
<g opacity="0.25" filter="url(#filter1_f_2085_989)">
<ellipse cx="507.041" cy="1066.03" rx="202.041" ry="107.027" fill="#6194E0"/>
</g>
<g opacity="0.25" filter="url(#filter2_f_2085_989)">
<ellipse cx="1636.5" cy="2090.5" rx="325.5" ry="172.5" fill="#6194E0"/>
</g>
<g opacity="0.05" filter="url(#filter3_f_2085_989)">
<ellipse cx="137" cy="96.7027" rx="360" ry="190.703" fill="#6194E0"/>
</g>
<g opacity="0.25" filter="url(#filter4_f_2085_989)">
<ellipse cx="639.127" cy="2357.15" rx="177.157" ry="93.8453" fill="#6194E0"/>
</g>
<g opacity="0.05" filter="url(#filter5_f_2085_989)">
<ellipse cx="314.661" cy="1507.22" rx="315.661" ry="167.215" fill="#6194E0"/>
</g>
<g opacity="0.25" filter="url(#filter6_f_2085_989)">
<ellipse cx="1757.25" cy="5010.51" rx="177.157" ry="93.8453" fill="#6194E0"/>
</g>
<g opacity="0.25" filter="url(#filter7_f_2085_989)">
<ellipse cx="626.127" cy="5198.15" rx="177.157" ry="93.8453" fill="#6194E0"/>
</g>
<g opacity="0.05" filter="url(#filter8_f_2085_989)">
<ellipse cx="301.661" cy="4348.22" rx="315.661" ry="167.215" fill="#6194E0"/>
</g>
<circle opacity="0.05" cx="-34.5" cy="465.5" r="186.5" stroke="#6194E0" stroke-width="80"/>
<circle opacity="0.05" cx="1880" cy="276" r="128" stroke="#6194E0" stroke-width="64"/>
<circle opacity="0.05" cx="1088" cy="1051" r="128" stroke="#6194E0" stroke-width="64"/>
<circle opacity="0.05" cx="-40.5" cy="1606.5" r="186.5" stroke="#6194E0" stroke-width="80"/>
<circle opacity="0.05" cx="1874" cy="1417" r="128" stroke="#6194E0" stroke-width="64"/>
<circle opacity="0.05" cx="1082" cy="2192" r="128" stroke="#6194E0" stroke-width="64"/>
<circle opacity="0.05" cx="226.5" cy="226.5" r="186.5" transform="matrix(-1 0 0 1 2059 2475)" stroke="#6194E0" stroke-width="80"/>
<circle opacity="0.05" cx="160" cy="160" r="128" transform="matrix(-1 0 0 1 78 2352)" stroke="#6194E0" stroke-width="64"/>
<circle opacity="0.05" cx="160" cy="160" r="128" transform="matrix(-1 0 0 1 870 3127)" stroke="#6194E0" stroke-width="64"/>
<circle opacity="0.05" cx="312.533" cy="312.533" r="272.533" transform="matrix(-1 0 0 1 2059 3616.72)" stroke="#6194E0" stroke-width="80"/>
<circle opacity="0.05" cx="220.774" cy="220.774" r="188.774" transform="matrix(-1 0 0 1 418.376 4516.37)" stroke="#6194E0" stroke-width="64"/>
<circle opacity="0.05" cx="312.533" cy="312.533" r="272.533" transform="matrix(-1 0 0 1 2156 5029.72)" stroke="#6194E0" stroke-width="80"/>
<circle opacity="0.05" cx="220.774" cy="220.774" r="188.774" transform="matrix(-1 0 0 1 515.376 5929.37)" stroke="#6194E0" stroke-width="64"/>
<circle opacity="0.05" cx="312.533" cy="312.533" r="272.533" transform="matrix(-1 0 0 1 1990 6701.72)" stroke="#6194E0" stroke-width="80"/>
<circle opacity="0.05" cx="220.774" cy="220.774" r="188.774" transform="matrix(-1 0 0 1 349.376 7601.37)" stroke="#6194E0" stroke-width="64"/>
<rect x="1889" y="399" width="24" height="24" rx="8" transform="rotate(30 1889 399)" fill="#6194E0"/>
<rect x="1190" y="175" width="24" height="24" rx="8" transform="rotate(30 1190 175)" fill="#E08761"/>
<rect x="1857.57" y="1833" width="19.1317" height="19.1317" rx="8" transform="rotate(30 1857.57 1833)" fill="#6194E0"/>
<rect x="1731.57" y="1247" width="19.1317" height="19.1317" rx="8" transform="rotate(30 1731.57 1247)" fill="#6194E0"/>
<rect x="1443" y="24" width="56" height="56" rx="16" transform="rotate(30 1443 24)" fill="#6194E0"/>
<g clip-path="url(#clip1_2085_989)">
<path d="M1467.58 59.8612C1466.51 55.8542 1462.6 53.2899 1458.52 53.7017C1456.62 49.5256 1451.78 47.503 1447.49 49.3361C1443.74 51.0229 1441.64 55.1977 1442.71 59.2047L1445.64 70.1329C1446.23 72.3185 1448.42 73.5852 1450.49 72.9329L1461.42 70.0047C1466.09 68.8513 1468.69 64.3479 1467.58 59.8612ZM1455.09 64.9655L1453.94 64.2988L1453.27 65.4535C1452.87 66.1463 1452.14 66.3415 1451.45 65.9415C1450.76 65.5415 1450.56 64.813 1450.96 64.1202L1451.63 62.9655L1450.47 62.2988C1449.78 61.8988 1449.58 61.1702 1449.98 60.4774C1450.38 59.7846 1451.11 59.5894 1451.81 59.9894L1452.96 60.6561L1453.63 59.5014C1454.03 58.8085 1454.76 58.6133 1455.45 59.0133C1456.14 59.4133 1456.34 60.1419 1455.94 60.8347L1455.27 61.9894L1456.42 62.6561C1457.12 63.0561 1457.31 63.7846 1456.91 64.4774C1456.51 65.1702 1455.78 65.3655 1455.09 64.9655Z" fill="white"/>
</g>
<circle opacity="0.05" cx="220.774" cy="220.774" r="188.774" transform="matrix(-1 0 0 1 655.547 3555)" stroke="white" stroke-width="64"/>
</g>
<defs>
<filter id="filter0_f_2085_989" x="1395" y="545" width="804.082" height="614.054" filterUnits="userSpaceOnUse" color-interpolation-filters="sRGB">
<feFlood flood-opacity="0" result="BackgroundImageFix"/>
<feBlend mode="normal" in="SourceGraphic" in2="BackgroundImageFix" result="shape"/>
<feGaussianBlur stdDeviation="100" result="effect1_foregroundBlur_2085_989"/>
</filter>
<filter id="filter1_f_2085_989" x="105" y="759" width="804.082" height="614.054" filterUnits="userSpaceOnUse" color-interpolation-filters="sRGB">
<feFlood flood-opacity="0" result="BackgroundImageFix"/>
<feBlend mode="normal" in="SourceGraphic" in2="BackgroundImageFix" result="shape"/>
<feGaussianBlur stdDeviation="100" result="effect1_foregroundBlur_2085_989"/>
</filter>
<filter id="filter2_f_2085_989" x="1111" y="1718" width="1051" height="745" filterUnits="userSpaceOnUse" color-interpolation-filters="sRGB">
<feFlood flood-opacity="0" result="BackgroundImageFix"/>
<feBlend mode="normal" in="SourceGraphic" in2="BackgroundImageFix" result="shape"/>
<feGaussianBlur stdDeviation="100" result="effect1_foregroundBlur_2085_989"/>
</filter>
<filter id="filter3_f_2085_989" x="-423" y="-294" width="1120" height="781.405" filterUnits="userSpaceOnUse" color-interpolation-filters="sRGB">
<feFlood flood-opacity="0" result="BackgroundImageFix"/>
<feBlend mode="normal" in="SourceGraphic" in2="BackgroundImageFix" result="shape"/>
<feGaussianBlur stdDeviation="100" result="effect1_foregroundBlur_2085_989"/>
</filter>
<filter id="filter4_f_2085_989" x="261.97" y="2063.31" width="754.314" height="587.69" filterUnits="userSpaceOnUse" color-interpolation-filters="sRGB">
<feFlood flood-opacity="0" result="BackgroundImageFix"/>
<feBlend mode="normal" in="SourceGraphic" in2="BackgroundImageFix" result="shape"/>
<feGaussianBlur stdDeviation="100" result="effect1_foregroundBlur_2085_989"/>
</filter>
<filter id="filter5_f_2085_989" x="-201" y="1140" width="1031.32" height="734.431" filterUnits="userSpaceOnUse" color-interpolation-filters="sRGB">
<feFlood flood-opacity="0" result="BackgroundImageFix"/>
<feBlend mode="normal" in="SourceGraphic" in2="BackgroundImageFix" result="shape"/>
<feGaussianBlur stdDeviation="100" result="effect1_foregroundBlur_2085_989"/>
</filter>
<filter id="filter6_f_2085_989" x="1380.09" y="4716.67" width="754.314" height="587.69" filterUnits="userSpaceOnUse" color-interpolation-filters="sRGB">
<feFlood flood-opacity="0" result="BackgroundImageFix"/>
<feBlend mode="normal" in="SourceGraphic" in2="BackgroundImageFix" result="shape"/>
<feGaussianBlur stdDeviation="100" result="effect1_foregroundBlur_2085_989"/>
</filter>
<filter id="filter7_f_2085_989" x="248.97" y="4904.31" width="754.314" height="587.69" filterUnits="userSpaceOnUse" color-interpolation-filters="sRGB">
<feFlood flood-opacity="0" result="BackgroundImageFix"/>
<feBlend mode="normal" in="SourceGraphic" in2="BackgroundImageFix" result="shape"/>
<feGaussianBlur stdDeviation="100" result="effect1_foregroundBlur_2085_989"/>
</filter>
<filter id="filter8_f_2085_989" x="-214" y="3981" width="1031.32" height="734.431" filterUnits="userSpaceOnUse" color-interpolation-filters="sRGB">
<feFlood flood-opacity="0" result="BackgroundImageFix"/>
<feBlend mode="normal" in="SourceGraphic" in2="BackgroundImageFix" result="shape"/>
<feGaussianBlur stdDeviation="100" result="effect1_foregroundBlur_2085_989"/>
</filter>
<clipPath id="clip0_2085_989">
<rect width="1920" height="10278" fill="white"/>
</clipPath>
<clipPath id="clip1_2085_989">
<rect width="32" height="32" fill="white" transform="translate(1447.59 40.6211) rotate(30)"/>
</clipPath>
</defs>
</svg>
